<?xml version="1.0" encoding="utf-8"?>
<!-- Generator: Adobe Illustrator 27.5.0, SVG Export Plug-In . SVG Version: 6.00 Build 0)  -->
<svg version="1.1" xmlns="http://www.w3.org/2000/svg" xmlns:xlink="http://www.w3.org/1999/xlink" x="0px" y="0px"
	 viewBox="0 0 500 500" style="enable-background:new 0 0 500 500;" xml:space="preserve">
<g id="Background_00000078736267566981498740000003540967147850458005_">
	<path id="Background" style="fill:#263238;" d="M339.822,159.07c-11.147-27.082-29.314-51.331-52.931-69.094
		c-22.4-16.847-54.27-21.689-82.414-17.479c-28.029,4.193-62.793,20.948-80.584,43.744c-16.846,21.585-26.605,40.413-44.683,61.194
		c-16.16,18.577-27.707,32.421-37.756,55.717c-2.745,6.364-4.431,13.098-5.154,19.959c-1.733,16.45,2.073,33.625,10.098,48.163
		c11.371,20.601,31.669,39.972,52.876,49.795c48.217,22.335,92.687,28.091,159.341,2.852c33.933-12.849,65.101-36.436,80.351-69.683
		C357.406,244.039,356.071,198.545,339.822,159.07z M63.95,144.229c2.377,3.04,6.286,5.091,10.046,4.347
		c3.483-0.689,6.116-3.504,8.456-6.202c8.653-9.976,16.774-20.424,24.315-31.285c6.565-9.456,15.841-20.136,7.216-31.145
		c-13.365-17.06-36.266,0.907-45.225,13.953c-7.823,11.392-11.076,25.9-8.878,39.591C60.496,137.315,61.573,141.188,63.95,144.229z"
		/>
</g>
<g id="Stars">
	<g id="Stars_00000176729652218174900280000013382111409598376106_">
		<g id="XMLID_3582_">
			<g>
				<g id="XMLID_00000057132137401706890230000006408168221916652467_" style="opacity:0.8;">
					<path style="fill:#BA68C8;" d="M436.076,258.762c-6.177,0-11.201-5.083-11.201-11.331c0-6.248,5.024-11.33,11.201-11.33
						c6.176,0,11.202,5.082,11.202,11.33C447.278,253.679,442.253,258.762,436.076,258.762z M436.076,236.786
						c-5.803,0-10.523,4.775-10.523,10.645c0,5.87,4.721,10.646,10.523,10.646s10.524-4.776,10.524-10.646
						C446.6,241.561,441.879,236.786,436.076,236.786z"/>
				</g>
				<path id="XMLID_00000001665422898970561120000005869327475626160300_" style="fill:#BA68C8;" d="M439.263,247.431
					c0,1.78-1.427,3.223-3.186,3.223c-1.76,0-3.186-1.443-3.186-3.223s1.426-3.223,3.186-3.223
					C437.836,244.208,439.263,245.651,439.263,247.431z"/>
				<path id="XMLID_00000013901637753407698020000002501390591622556844_" style="opacity:0.7;fill:#FFFFFF;" d="M439.263,247.431
					c0,1.78-1.427,3.223-3.186,3.223c-1.76,0-3.186-1.443-3.186-3.223s1.426-3.223,3.186-3.223
					C437.836,244.208,439.263,245.651,439.263,247.431z"/>
			</g>
		</g>
		<g id="XMLID_15357_">
			<g id="XMLID_15389_" style="opacity:0.8;">
				<path style="fill:#BA68C8;" d="M351.868,78.609c-4.353,0-7.892-3.581-7.892-7.983c0-4.403,3.54-7.984,7.892-7.984
					c4.352,0,7.891,3.581,7.891,7.984C359.76,75.029,356.22,78.609,351.868,78.609z M351.868,63.328
					c-3.978,0-7.215,3.275-7.215,7.299c0,4.024,3.237,7.297,7.215,7.297c3.978,0,7.214-3.274,7.214-7.297
					C359.082,66.603,355.846,63.328,351.868,63.328z"/>
			</g>
			<path id="XMLID_15358_" style="fill:#BA68C8;" d="M354.084,70.627c0,1.238-0.992,2.241-2.216,2.241s-2.216-1.003-2.216-2.241
				s0.992-2.241,2.216-2.241S354.084,69.389,354.084,70.627z"/>
			<path id="XMLID_00000171695773426246005100000005727367649953849534_" style="opacity:0.7;fill:#FFFFFF;" d="M354.084,70.627
				c0,1.238-0.992,2.241-2.216,2.241s-2.216-1.003-2.216-2.241s0.992-2.241,2.216-2.241S354.084,69.389,354.084,70.627z"/>
		</g>
		<g id="XMLID_1661_">
			<g id="XMLID_4504_" style="opacity:0.8;">
				<path style="fill:#BA68C8;" d="M68.846,392.695c-4.611,0-8.363-3.794-8.363-8.459c0-4.665,3.752-8.46,8.363-8.46
					c4.612,0,8.364,3.795,8.364,8.46C77.21,388.901,73.458,392.695,68.846,392.695z M68.846,376.461
					c-4.238,0-7.686,3.488-7.686,7.775c0,4.287,3.448,7.774,7.686,7.774c4.238,0,7.686-3.487,7.686-7.774
					C76.533,379.949,73.084,376.461,68.846,376.461z"/>
			</g>
			<path id="XMLID_4379_" style="fill:#BA68C8;" d="M71.2,384.235c0,1.315-1.054,2.381-2.354,2.381c-1.3,0-2.354-1.066-2.354-2.381
				c0-1.315,1.054-2.381,2.354-2.381C70.146,381.854,71.2,382.92,71.2,384.235z"/>
			<path id="XMLID_00000098178512523192721140000006984570232578912652_" style="opacity:0.7;fill:#FFFFFF;" d="M71.2,384.235
				c0,1.315-1.054,2.381-2.354,2.381c-1.3,0-2.354-1.066-2.354-2.381c0-1.315,1.054-2.381,2.354-2.381
				C70.146,381.854,71.2,382.92,71.2,384.235z"/>
		</g>
		<g>
			<g>
				<g>
					<path id="XMLID_00000095306319762751287040000007768985675832191666_" style="fill:#BA68C8;" d="M441.856,100.353
						c0,1.294-1.037,2.343-2.316,2.343s-2.316-1.049-2.316-2.343c0-1.294,1.037-2.343,2.316-2.343S441.856,99.059,441.856,100.353z"
						/>
					<path id="XMLID_00000023973935222584576570000003110340480407654807_" style="opacity:0.7;fill:#FFFFFF;" d="M441.856,100.353
						c0,1.294-1.037,2.343-2.316,2.343s-2.316-1.049-2.316-2.343c0-1.294,1.037-2.343,2.316-2.343S441.856,99.059,441.856,100.353z"
						/>
				</g>
				<g>
					<path id="XMLID_00000119836890576304783320000010309447270179787408_" style="fill:#BA68C8;" d="M434.935,106.754
						c0,0.772-0.619,1.398-1.382,1.398c-0.763,0-1.382-0.626-1.382-1.398s0.619-1.398,1.382-1.398
						C434.316,105.355,434.935,105.981,434.935,106.754z"/>
					<path id="XMLID_00000047042363854494053150000003208862422249302189_" style="opacity:0.7;fill:#FFFFFF;" d="M434.935,106.754
						c0,0.772-0.619,1.398-1.382,1.398c-0.763,0-1.382-0.626-1.382-1.398s0.619-1.398,1.382-1.398
						C434.316,105.355,434.935,105.981,434.935,106.754z"/>
				</g>
				<g>
					<path id="XMLID_00000155856121026375593820000007703484898371285427_" style="fill:#BA68C8;" d="M431.016,98.01
						c0,0.623-0.499,1.128-1.115,1.128c-0.615,0-1.115-0.505-1.115-1.128c0-0.623,0.499-1.127,1.115-1.127
						C430.517,96.883,431.016,97.387,431.016,98.01z"/>
					<path id="XMLID_00000004524451807125685180000009764728891022884526_" style="opacity:0.8;fill:#FFFFFF;" d="M431.016,98.01
						c0,0.623-0.499,1.128-1.115,1.128c-0.615,0-1.115-0.505-1.115-1.128c0-0.623,0.499-1.127,1.115-1.127
						C430.517,96.883,431.016,97.387,431.016,98.01z"/>
				</g>
			</g>
			<g>
				<g>
					<path id="XMLID_00000119806295701304566120000013632646708475166101_" style="fill:#BA68C8;" d="M48.958,172.884
						c0,1.294-1.037,2.343-2.316,2.343s-2.316-1.049-2.316-2.343c0-1.294,1.037-2.343,2.316-2.343S48.958,171.59,48.958,172.884z"/>
					<path id="XMLID_00000098220487527860436250000000302795090827091845_" style="opacity:0.7;fill:#FFFFFF;" d="M48.958,172.884
						c0,1.294-1.037,2.343-2.316,2.343s-2.316-1.049-2.316-2.343c0-1.294,1.037-2.343,2.316-2.343S48.958,171.59,48.958,172.884z"/>
				</g>
				<g>
					<path id="XMLID_00000041259086046380175380000007438828814668452749_" style="fill:#BA68C8;" d="M42.038,179.285
						c0,0.772-0.619,1.398-1.382,1.398c-0.763,0-1.382-0.626-1.382-1.398s0.619-1.398,1.382-1.398
						C41.419,177.886,42.038,178.512,42.038,179.285z"/>
					<path id="XMLID_00000047031929150160743480000008024667988817190794_" style="opacity:0.7;fill:#FFFFFF;" d="M42.038,179.285
						c0,0.772-0.619,1.398-1.382,1.398c-0.763,0-1.382-0.626-1.382-1.398s0.619-1.398,1.382-1.398
						C41.419,177.886,42.038,178.512,42.038,179.285z"/>
				</g>
				<g>
					<path id="XMLID_00000046338515912661391480000006481582427690281623_" style="fill:#BA68C8;" d="M38.118,170.541
						c0,0.623-0.499,1.128-1.114,1.128c-0.615,0-1.115-0.505-1.115-1.128c0-0.623,0.499-1.127,1.115-1.127
						C37.619,169.414,38.118,169.919,38.118,170.541z"/>
					<path id="XMLID_00000044180162072316431640000016777344378124237239_" style="opacity:0.8;fill:#FFFFFF;" d="M38.118,170.541
						c0,0.623-0.499,1.128-1.114,1.128c-0.615,0-1.115-0.505-1.115-1.128c0-0.623,0.499-1.127,1.115-1.127
						C37.619,169.414,38.118,169.919,38.118,170.541z"/>
				</g>
			</g>
			<g>
				<g>
					<path id="XMLID_00000150790252068847012350000007429135625792832141_" style="fill:#BA68C8;" d="M255.058,410.909
						c0,1.294-1.037,2.343-2.316,2.343c-1.279,0-2.316-1.049-2.316-2.343c0-1.294,1.037-2.343,2.316-2.343
						C254.021,408.566,255.058,409.615,255.058,410.909z"/>
					<path id="XMLID_00000047769685620291790560000010785455325488561536_" style="opacity:0.7;fill:#FFFFFF;" d="M255.058,410.909
						c0,1.294-1.037,2.343-2.316,2.343c-1.279,0-2.316-1.049-2.316-2.343c0-1.294,1.037-2.343,2.316-2.343
						C254.021,408.566,255.058,409.615,255.058,410.909z"/>
				</g>
				<g>
					<path id="XMLID_00000018218707522278659970000008291326484533947792_" style="fill:#BA68C8;" d="M248.137,417.31
						c0,0.772-0.619,1.398-1.382,1.398c-0.763,0-1.382-0.626-1.382-1.398c0-0.772,0.619-1.398,1.382-1.398
						C247.518,415.912,248.137,416.538,248.137,417.31z"/>
					<path id="XMLID_00000111186730558286273240000008410584823071821213_" style="opacity:0.7;fill:#FFFFFF;" d="M248.137,417.31
						c0,0.772-0.619,1.398-1.382,1.398c-0.763,0-1.382-0.626-1.382-1.398c0-0.772,0.619-1.398,1.382-1.398
						C247.518,415.912,248.137,416.538,248.137,417.31z"/>
				</g>
				<g>
					<path id="XMLID_00000124144449242781755610000008040885320703037085_" style="fill:#BA68C8;" d="M244.217,408.566
						c0,0.623-0.499,1.128-1.115,1.128c-0.615,0-1.115-0.505-1.115-1.128c0-0.622,0.499-1.127,1.115-1.127
						C243.718,407.439,244.217,407.944,244.217,408.566z"/>
					<path id="XMLID_00000159459658007944111210000006470443705524408705_" style="opacity:0.8;fill:#FFFFFF;" d="M244.217,408.566
						c0,0.623-0.499,1.128-1.115,1.128c-0.615,0-1.115-0.505-1.115-1.128c0-0.622,0.499-1.127,1.115-1.127
						C243.718,407.439,244.217,407.944,244.217,408.566z"/>
				</g>
			</g>
			<g>
				<g>
					<path id="XMLID_00000097484231683676504920000015494814956690874028_" style="fill:#BA68C8;" d="M391.617,233.832
						c0.045,0.936,0.831,1.658,1.756,1.612c0.925-0.045,1.639-0.841,1.594-1.777c-0.045-0.936-0.831-1.658-1.756-1.612
						C392.286,232.101,391.572,232.896,391.617,233.832z"/>
					<path id="XMLID_00000016041571615987050830000008726899822692133041_" style="opacity:0.7;fill:#FFFFFF;" d="M391.617,233.832
						c0.045,0.936,0.831,1.658,1.756,1.612c0.925-0.045,1.639-0.841,1.594-1.777c-0.045-0.936-0.831-1.658-1.756-1.612
						C392.286,232.101,391.572,232.896,391.617,233.832z"/>
				</g>
				<g>
					<path id="XMLID_00000127761795772228795290000017114163470140770733_" style="fill:#BA68C8;" d="M388.16,241.034
						c0.364-0.347,0.936-0.329,1.278,0.038c0.343,0.368,0.325,0.947-0.038,1.293c-0.363,0.346-0.936,0.329-1.278-0.039
						C387.78,241.959,387.797,241.38,388.16,241.034z"/>
					<path id="XMLID_00000152949911707899092760000004003894690788785836_" style="opacity:0.8;fill:#FFFFFF;" d="M388.16,241.034
						c0.364-0.347,0.936-0.329,1.278,0.038c0.343,0.368,0.325,0.947-0.038,1.293c-0.363,0.346-0.936,0.329-1.278-0.039
						C387.78,241.959,387.797,241.38,388.16,241.034z"/>
				</g>
			</g>
			<g>
				<g>
					<path id="XMLID_00000127728727669466871960000015920349110528521661_" style="fill:#BA68C8;" d="M158.615,60.156
						c-0.436,0.827-0.126,1.854,0.691,2.295c0.817,0.441,1.833,0.128,2.269-0.699c0.436-0.827,0.126-1.854-0.691-2.295
						C160.066,59.016,159.051,59.329,158.615,60.156z"/>
					<path id="XMLID_00000104705850102299015290000004560014664986869393_" style="opacity:0.7;fill:#FFFFFF;" d="M158.615,60.156
						c-0.436,0.827-0.126,1.854,0.691,2.295c0.817,0.441,1.833,0.128,2.269-0.699c0.436-0.827,0.126-1.854-0.691-2.295
						C160.066,59.016,159.051,59.329,158.615,60.156z"/>
				</g>
				<g>
					<path id="XMLID_00000067235505782873833430000013215397837617390984_" style="fill:#BA68C8;" d="M151.996,64.546
						c0.488-0.109,0.97,0.203,1.078,0.696c0.108,0.493-0.2,0.981-0.688,1.09c-0.488,0.109-0.97-0.203-1.078-0.696
						C151.201,65.144,151.509,64.655,151.996,64.546z"/>
					<path id="XMLID_00000031192940892862578750000002915957528603725980_" style="opacity:0.8;fill:#FFFFFF;" d="M151.996,64.546
						c0.488-0.109,0.97,0.203,1.078,0.696c0.108,0.493-0.2,0.981-0.688,1.09c-0.488,0.109-0.97-0.203-1.078-0.696
						C151.201,65.144,151.509,64.655,151.996,64.546z"/>
				</g>
			</g>
			<g>
				<g>
					<path id="XMLID_00000123422735440748712140000008478251235189297073_" style="fill:#BA68C8;" d="M464.66,282.395
						c0.926-0.008,1.671-0.773,1.663-1.71c-0.008-0.937-0.765-1.69-1.691-1.682c-0.926,0.008-1.671,0.774-1.663,1.71
						C462.977,281.65,463.734,282.403,464.66,282.395z"/>
					<path id="XMLID_00000111914022673981707780000008009369526324205243_" style="opacity:0.7;fill:#FFFFFF;" d="M464.66,282.395
						c0.926-0.008,1.671-0.773,1.663-1.71c-0.008-0.937-0.765-1.69-1.691-1.682c-0.926,0.008-1.671,0.774-1.663,1.71
						C462.977,281.65,463.734,282.403,464.66,282.395z"/>
				</g>
				<g>
					<path id="XMLID_00000085936822550210194780000002993068694082039691_" style="fill:#BA68C8;" d="M471.635,286.179
						c-0.328-0.382-0.288-0.959,0.089-1.29c0.377-0.332,0.948-0.291,1.276,0.09c0.328,0.381,0.288,0.959-0.09,1.29
						C472.534,286.601,471.963,286.56,471.635,286.179z"/>
					<path id="XMLID_00000091718394813819058180000007093644667633372091_" style="opacity:0.8;fill:#FFFFFF;" d="M471.635,286.179
						c-0.328-0.382-0.288-0.959,0.089-1.29c0.377-0.332,0.948-0.291,1.276,0.09c0.328,0.381,0.288,0.959-0.09,1.29
						C472.534,286.601,471.963,286.56,471.635,286.179z"/>
				</g>
				<g>
					<path id="XMLID_00000116219269608168933120000002847222060878775219_" style="fill:#BA68C8;" d="M471.072,277.706
						c-0.328-0.381-0.288-0.959,0.089-1.29c0.377-0.332,0.948-0.291,1.276,0.09c0.328,0.381,0.288,0.959-0.09,1.29
						C471.971,278.127,471.4,278.087,471.072,277.706z"/>
					<path id="XMLID_00000032625133606367222330000016583531315152612758_" style="opacity:0.8;fill:#FFFFFF;" d="M471.072,277.706
						c-0.328-0.381-0.288-0.959,0.089-1.29c0.377-0.332,0.948-0.291,1.276,0.09c0.328,0.381,0.288,0.959-0.09,1.29
						C471.971,278.127,471.4,278.087,471.072,277.706z"/>
				</g>
			</g>
		</g>
	</g>
</g>
<g id="Planets">
	<g id="Saturn_00000134213852057262396550000010986103149428409245_">
		<g id="Planet_7_">
			<ellipse id="XMLID_1519_" style="fill:#BA68C8;" cx="381.657" cy="365.723" rx="49.413" ry="49.984"/>
			<ellipse id="XMLID_1551_" style="opacity:0.75;fill:#FFFFFF;" cx="381.657" cy="365.723" rx="49.413" ry="49.984"/>
			<g style="opacity:0.2;">
				<path style="fill:#BA68C8;" d="M341.088,372.785c4.051-0.687,8.068-1.582,12.05-2.601c3.972-1.017,7.908-2.177,11.798-3.479
					c3.977-1.33,8.051-3.362,12.31-3.39c3.715-0.024,7.254,0.534,10.972-0.03c3.651-0.553,7.18-1.737,10.502-3.356
					c6.927-3.376,12.671-8.636,17.781-14.363c2.178-2.441,4.252-4.977,6.292-7.539c-0.758-1.152-1.552-2.276-2.397-3.353
					c-2.092,2.625-4.196,5.242-6.401,7.771c-4.628,5.309-9.82,10.287-16.041,13.632c-3.191,1.716-6.612,3.001-10.188,3.591
					c-3.776,0.623-7.44-0.155-11.212-0.019c-3.884,0.139-7.455,1.704-11.064,2.996c-3.62,1.296-7.285,2.465-10.984,3.507
					c-4.282,1.207-8.609,2.205-12.962,3.113c-2.696,0.562-5.406,1.022-8.121,1.477c-0.3,0.05-0.603,0.098-0.905,0.146
					c0.108,1.037,0.239,2.075,0.413,3.116C335.678,373.77,338.44,373.234,341.088,372.785z"/>
				<path style="fill:#BA68C8;" d="M346.466,360.57c6.259-1.195,12.281-3.396,17.936-6.346c5.397-2.816,10.696-7.245,17.22-6.297
					c4.601,0.668,10.503,0.192,14.623-2.143c5.648-3.201,11.094-7.422,15.153-12.538c1.152-1.452,2.496-2.839,3.718-4.298
					c-0.998-0.927-2.026-1.817-3.093-2.657c-0.285,0.361-0.569,0.714-0.853,1.039c-1.021,1.166-2.067,2.313-3.112,3.458
					c-2.274,2.489-4.303,5.131-7.083,7.076c-2.94,2.057-6.129,3.995-9.527,5.174c-1.923,0.668-7.599,2.158-8.936-0.321
					c-0.354-0.656,0.208-1.418,0.73-1.948c4.402-4.467,9.085-8.687,12.672-13.864c0.897-1.294,1.807-2.615,2.276-4.123
					c0.317-1.019,0.423-2.092,0.473-3.16c0.013-0.282-0.002-0.561-0.032-0.834c-0.863-0.32-1.735-0.616-2.617-0.888
					c-0.024,0.104-0.05,0.195-0.072,0.311c-0.665,3.578-3.814,7.498-5.97,10.345c-3.024,3.993-6.832,7.291-10.624,10.508
					c-9.046,7.674-19.105,13.971-30.654,17.007c-5.278,1.387-10.486,1.712-15.81,1.643c-0.195,1.21-0.351,2.43-0.457,3.66
					C337.09,361.871,341.924,361.437,346.466,360.57z"/>
				<path style="fill:#BA68C8;" d="M361.499,343.763c8.893-3.835,17.854-9.127,24.528-16.308c1.671-1.798,3.164-3.78,4.307-5.965
					c0.686-1.311,1.466-2.993,1.72-4.631c-0.76-0.166-1.526-0.315-2.296-0.445c-0.035,0.121-0.065,0.238-0.106,0.361
					c-0.326,0.978-0.733,1.925-1.203,2.84c-1.017,1.979-2.327,3.783-3.799,5.44c-3.082,3.468-6.809,6.241-10.66,8.769
					c-8.463,5.557-17.732,9.752-27.558,12.139c-3.583,0.871-7.249,1.517-10.932,1.917c-0.333,0.88-0.637,1.772-0.921,2.672
					C343.839,349.677,352.915,347.465,361.499,343.763z"/>
				<path style="fill:#BA68C8;" d="M342.701,339.108c3.071-0.036,6.121-0.445,9.103-1.181c5.705-1.408,11.052-3.864,16.163-6.749
					c5.083-2.869,10.448-5.9,14.785-9.87c1.671-1.529,3.146-3.288,4.255-5.273c-1.435-0.158-2.883-0.257-4.341-0.286
					c-1.241,1.673-2.771,3.15-4.382,4.433c-4.198,3.345-8.994,6.171-13.693,8.728c-4.671,2.542-9.592,4.737-14.793,5.88
					c-2.501,0.55-5.07,0.887-7.632,0.91c-0.798,1.075-1.563,2.176-2.273,3.311C340.828,339.077,341.764,339.118,342.701,339.108z"/>
				<path style="fill:#BA68C8;" d="M427.225,376.749c-3.359,5.482-7.497,10.454-12.322,14.673
					c-4.719,4.126-10.718,8.546-17.259,8.411c-3.343-0.069-6.051-2.271-9.393-2.349c-3.613-0.085-7.034,1.68-10.342,2.915
					c-4.206,1.57-8.472,2.931-12.82,4.041c-3.921,1.001-7.96,1.705-12.01,2.054c1.329,0.953,2.702,1.841,4.117,2.657
					c4.076-0.371,8.123-1.118,12.076-2.185c3.925-1.06,7.786-2.359,11.599-3.774c1.752-0.65,3.487-1.389,5.31-1.816
					c1.312-0.307,7.178,0.216,6.416,2.227c-0.456,1.203-2.95,1.935-3.978,2.481c-1.533,0.814-3.054,1.651-4.575,2.487
					c-3.412,1.875-6.836,3.762-10.385,5.364c-0.603,0.272-1.216,0.521-1.828,0.773c1.811,0.373,3.649,0.65,5.51,0.815
					c2.829-1.291,5.577-2.753,8.312-4.244c4.387-2.392,9.056-4.604,13.67-6.675c4.644-2.085,9.447-3.797,13.636-6.714
					c5.859-4.081,10.996-9.371,15.163-15.19c0,0,0,0,0,0c1.483-4.142,2.447-8.499,2.801-12.98
					C429.838,372.137,428.61,374.489,427.225,376.749z"/>
				<path style="fill:#BA68C8;" d="M367.167,372.677c-3.739,2.275-7.801,4.148-11.906,5.634c-3.925,1.421-7.972,2.514-12.033,3.457
					c-2.341,0.543-4.699,1.003-7.059,1.446c-0.248,0.046-0.493,0.096-0.74,0.144c0.379,1.02,0.778,2.029,1.218,3.011
					c2.249-0.263,4.483-0.619,6.71-1.034c4.486-0.835,8.893-1.986,13.194-3.531c4.253-1.528,8.322-3.4,12.172-5.785
					c3.652-2.263,6.954-5.223,11.127-6.472c0.464-0.139,0.222-1.027-0.179-1.098C374.996,367.621,370.995,370.348,367.167,372.677z"
					/>
				<path style="fill:#BA68C8;" d="M384.798,388.373c7.323-3.638,14.427-7.857,21.282-12.329
					c6.651-4.339,12.689-9.271,17.637-15.563c2.009-2.555,3.82-5.269,5.579-8.011c-0.438-1.617-0.953-3.193-1.536-4.729
					c-1.925,2.952-3.886,5.88-6.006,8.693c-4.587,6.089-9.91,11.111-16.187,15.389c-6.272,4.276-12.903,8.157-19.601,11.707
					c-6.782,3.594-13.849,6.698-21.306,8.536c-3.909,0.963-7.88,1.648-11.903,1.842c-4.159,0.2-8.245-0.119-12.335-0.636
					c0.706,1.081,1.449,2.129,2.231,3.144c6.257,1.467,12.977,1.073,19.229-0.021C369.871,394.996,377.546,391.976,384.798,388.373z
					"/>
				<path style="fill:#BA68C8;" d="M394.836,370.181c-3.945,2.431-8.053,4.919-12.349,6.649c-0.137,0.055-0.13,0.428,0.043,0.375
					c4.437-1.346,8.722-2.703,12.846-4.88c3.941-2.079,7.733-4.527,11.206-7.336c6.724-5.439,12.609-11.934,17.309-19.234
					c0.603-0.937,1.179-1.891,1.741-2.852c-0.489-0.966-1.017-1.905-1.563-2.829C417.144,352.462,406.9,362.745,394.836,370.181z"/>
				<path style="fill:#BA68C8;" d="M428.357,361.836c-2.548,3.706-5.425,7.181-8.311,10.619c-3.214,3.829-6.668,7.206-10.777,10.042
					c-1.953,1.348-3.97,2.599-6,3.823c-1.207,0.728-2.472,1.35-3.668,2.096c-1.077,0.672-2.37,1.108-3.359,1.89
					c-0.363,0.287-0.036,1.288,0.447,1.238c1.216-0.126,2.289-0.688,3.46-1.004c1.182-0.32,2.314-0.68,3.455-1.141
					c2.575-1.042,5.043-2.207,7.412-3.672c4.556-2.818,8.417-6.566,11.888-10.641c2.828-3.321,5.666-6.712,8.166-10.308
					c-0.042-2.135-0.236-4.288-0.558-6.447C429.844,359.529,429.135,360.705,428.357,361.836z"/>
			</g>
			<path id="XMLID_1518_" style="opacity:0.3;fill:#BA68C8;" d="M378.137,315.86c18.613-0.466,42.225,28.306,37.009,56.881
				c-5.546,30.382-41.415,44.055-61.229,34.327l-0.017,0.005c10.916,7.495,24.753,10.578,38.637,7.407
				c26.62-6.079,43.328-32.836,37.319-59.764C424.402,330.277,402.111,314.098,378.137,315.86z"/>
			<path id="XMLID_1517_" style="opacity:0.2;fill:#BA68C8;" d="M392.538,414.48c26.62-6.079,43.328-32.836,37.319-59.764
				c-3.91-17.521-16.476-30.796-32.111-36.258c1.943,0.71,26.466,9.603,27.906,45.103c1.499,36.954-33.102,50.915-40.804,52.048
				C387.397,415.438,389.967,415.067,392.538,414.48z"/>
			<path style="opacity:0.4;fill:#FFFFFF;" d="M369.655,336.055c-0.94-4.212-5.078-6.856-9.242-5.905
				c-4.164,0.951-6.778,5.137-5.838,9.349c0.94,4.212,5.078,6.856,9.242,5.905C367.982,344.453,370.595,340.267,369.655,336.055z
				 M348.942,348.025c-7.159,1.635-11.652,8.831-10.036,16.073c1.616,7.242,8.73,11.787,15.889,10.152
				c7.159-1.635,11.652-8.831,10.036-16.073C363.214,350.936,356.101,346.39,348.942,348.025z M373.96,347.712
				c-3.279,0.749-5.337,4.045-4.597,7.361c0.74,3.317,3.998,5.399,7.277,4.65c3.279-0.749,5.337-4.045,4.597-7.362
				C380.497,349.046,377.239,346.964,373.96,347.712z"/>
		</g>
		<g id="Rings_00000107551761541314430250000001610249817820582549_">
			<g style="opacity:0.6;">
				<path style="fill:#BA68C8;" d="M354.912,409.239c0.597-0.164,1.204-0.336,1.814-0.526c26.243-7.76,58.2-31.759,73.137-54.924
					c0.363-0.526,0.694-1.074,1.033-1.612c14.799-24.182,4.771-37.847-22.398-30.497c-0.7,0.194-1.41,0.396-2.123,0.615
					c2.214,1.273,4.322,2.721,6.316,4.332c9.162,0.238,13.489,5.369,11.864,13.849c-0.666,3.515-2.344,7.584-5.122,12.133
					c-11.847,19.361-39.056,39.794-60.805,45.663c-5.098,1.366-9.435,1.814-12.945,1.452c-8.505-0.873-12.115-6.558-9.689-15.498
					c-0.569-1.435-1.071-2.905-1.512-4.42c-0.286-0.985-0.544-1.974-0.757-2.966c-0.414,0.626-0.82,1.263-1.199,1.895
					C317.707,402.914,327.736,416.579,354.912,409.239z"/>
			</g>
			<g style="opacity:0.7;">
				<path style="fill:#BA68C8;" d="M351.159,423.089c6.927-1.872,14.199-4.697,21.545-8.272
					c20.998-10.166,42.614-26.399,58.32-43.797c5.509-6.078,10.287-12.302,14.063-18.468c18.295-29.901,5.899-46.791-27.699-37.721
					c-4.895,1.324-9.985,3.126-15.152,5.334c1,0.448,1.992,0.95,2.945,1.482c1.631-0.562,3.252-1.053,4.855-1.484
					c28.387-7.666,38.864,6.61,23.406,31.871c-0.919,1.511-1.919,3.019-2.991,4.535c-15.652,22.361-45.615,44.846-71.276,53.526
					c-1.724,0.585-3.448,1.105-5.126,1.561c-28.397,7.673-38.874-6.602-23.396-31.879c0.861-1.42,1.803-2.837,2.789-4.257
					c-0.225-1.094-0.408-2.172-0.543-3.27c-3.581,4.347-6.76,8.754-9.429,13.11C305.155,415.276,317.551,432.166,351.159,423.089z"
					/>
			</g>
			<g>
				<path style="fill:#BA68C8;" d="M413.431,318.396c4.791-1.205,9.718-2.02,14.649-1.836c2.457,0.109,4.91,0.468,7.238,1.234
					c2.313,0.772,4.534,1.933,6.267,3.652c1.745,1.695,3.021,3.851,3.705,6.198c0.663,2.357,0.787,4.849,0.561,7.297
					c-0.455,4.922-2.246,9.636-4.441,14.053c-4.545,8.813-10.781,16.667-17.575,23.861c-6.819,7.197-14.303,13.741-22.214,19.687
					c-7.915,5.94-16.27,11.298-25.052,15.82c-8.771,4.506-18.009,8.253-27.659,10.139c-4.816,0.875-9.78,1.286-14.599,0.449
					c-2.398-0.417-4.752-1.157-6.861-2.365c-2.122-1.182-3.913-2.935-5.142-5.038c-1.257-2.094-1.891-4.542-2.01-7.007
					c-0.135-2.47,0.187-4.959,0.764-7.377c1.201-4.84,3.39-9.383,5.917-13.673c-2.614,4.236-4.902,8.738-6.214,13.596
					c-0.632,2.427-1.012,4.943-0.926,7.475c0.07,2.525,0.668,5.077,1.939,7.297c1.25,2.224,3.124,4.084,5.319,5.343
					c2.185,1.286,4.614,2.078,7.076,2.536c4.949,0.918,10.007,0.553,14.908-0.278c4.91-0.873,9.706-2.28,14.366-4.022
					c4.666-1.733,9.209-3.784,13.638-6.047c8.865-4.523,17.297-9.88,25.284-15.834c7.942-6.016,15.449-12.631,22.292-19.909
					c3.423-3.634,6.675-7.442,9.664-11.458c2.992-4.011,5.718-8.245,7.943-12.76c2.179-4.516,3.956-9.339,4.37-14.42
					c0.204-2.526,0.048-5.113-0.673-7.569c-0.744-2.443-2.105-4.706-3.961-6.444c-1.849-1.756-4.168-2.903-6.546-3.642
					c-2.394-0.734-4.886-1.043-7.366-1.102C423.114,316.171,418.197,317.092,413.431,318.396z"/>
			</g>
			<g>
				<path style="fill:#BA68C8;" d="M417.56,322.822c3.386,0.174,6.871,0.982,9.569,3.09l0.991,0.796l0.835,0.96l0.417,0.479
					c0.123,0.172,0.22,0.362,0.331,0.542l0.648,1.093c0.673,1.552,1.154,3.205,1.206,4.91c0.213,3.403-0.588,6.803-1.776,9.992
					c-1.161,3.222-2.887,6.202-4.674,9.112c-3.724,5.748-8.157,11.011-12.97,15.871c-4.802,4.876-10,9.349-15.449,13.469
					c-5.441,4.134-11.158,7.899-17.122,11.211c-5.978,3.279-12.195,6.148-18.686,8.183c-3.246,1.004-6.568,1.769-9.934,2.15
					c-3.356,0.376-6.801,0.375-10.068-0.493c-0.796-0.267-1.64-0.421-2.386-0.823l-1.151-0.526
					c-0.365-0.208-0.707-0.457-1.063-0.684c-0.746-0.413-1.305-1.062-1.94-1.622c-0.301-0.297-0.522-0.665-0.788-0.995
					c-0.256-0.338-0.529-0.667-0.694-1.064c-1.66-3.003-1.853-6.652-1.211-10.023c-0.718,3.353-0.626,7.026,0.997,10.142
					c0.161,0.41,0.431,0.753,0.685,1.107c0.264,0.345,0.485,0.729,0.786,1.042c0.635,0.59,1.202,1.273,1.956,1.717
					c0.36,0.242,0.708,0.508,1.08,0.731l1.169,0.57c0.762,0.432,1.616,0.611,2.431,0.905c3.34,0.945,6.849,0.983,10.26,0.651
					c3.422-0.341,6.798-1.07,10.091-2.041c6.599-1.94,12.86-4.861,18.899-8.119c6.021-3.31,11.793-7.07,17.286-11.211
					c5.468-4.173,10.679-8.697,15.495-13.63c4.813-4.923,9.306-10.221,12.971-16.1c1.771-2.971,3.479-6.011,4.619-9.308
					c1.163-3.262,1.949-6.746,1.671-10.252c-0.096-1.754-0.632-3.457-1.366-5.039l-0.694-1.113
					c-0.119-0.183-0.224-0.376-0.355-0.549l-0.44-0.483l-0.88-0.963l-1.033-0.791C424.468,323.633,420.948,322.917,417.56,322.822z"
					/>
			</g>
			<g>
				<g>
					<g style="opacity:0.1;">
						<path style="fill:#BA68C8;" d="M349.559,437.761c12.717-3.376,26.503-9.518,40.059-17.491
							c14.648-8.596,29.02-19.295,41.496-30.892c11.547-10.732,21.461-22.232,28.431-33.524c3.278-5.327,5.859-10.496,7.653-15.346
							c6.569-17.756,1.896-28.255-3.187-33.952c-8.562-9.583-24.564-11.868-45.051-6.444c-8.779,2.327-18.076,5.976-27.45,10.633
							c0.752,0.135,1.508,0.3,2.246,0.474c8.742-4.235,17.372-7.565,25.56-9.74c19.95-5.297,35.454-3.155,43.674,6.028
							c4.807,5.396,9.229,15.41,2.904,32.507c-1.765,4.772-4.294,9.841-7.529,15.093c-6.437,10.412-15.394,21.012-25.853,31.013
							c-13.68,13.125-29.92,25.221-46.369,34.547c-12.539,7.11-25.196,12.613-36.927,15.731
							c-19.968,5.305-35.472,3.163-43.674-6.028c-4.826-5.388-9.229-15.41-2.914-32.48c1.77-4.785,4.304-9.867,7.552-15.114
							c4.47-7.264,10.171-14.604,16.747-21.777c0.058-0.759,0.134-1.527,0.223-2.29c-7.17,7.655-13.353,15.533-18.15,23.32
							c-3.296,5.335-5.871,10.491-7.676,15.368c-6.564,17.742-1.891,28.242,3.184,33.92
							C313.066,440.913,329.081,443.203,349.559,437.761z"/>
					</g>
				</g>
				<g>
					<g style="opacity:0.2;">
						<path style="fill:#BA68C8;" d="M351.046,430.956c10.2-2.708,21.131-7.354,32.039-13.333
							c16.896-9.281,33.694-21.799,47.481-35.373c8.881-8.748,16.518-17.939,22.109-26.988c2.979-4.85,5.324-9.531,6.948-13.921
							c5.705-15.421,1.804-24.355-2.472-29.146c-7.361-8.242-21.445-10.106-39.669-5.26c-7.168,1.896-14.693,4.758-22.311,8.359
							c0.626,0.153,1.268,0.339,1.888,0.546c7.09-3.266,14.073-5.867,20.749-7.639c17.727-4.709,31.357-2.975,38.373,4.883
							c4.03,4.514,7.69,13.005,2.219,27.795c-1.592,4.303-3.897,8.915-6.832,13.683c-5.175,8.375-12.126,16.881-20.205,25.045
							c-14.56,14.719-32.813,28.308-51.033,38.004c-10.098,5.37-20.173,9.549-29.618,12.064
							c-17.727,4.709-31.357,2.975-38.361-4.878c-4.047-4.507-7.695-12.993-2.228-27.771c1.601-4.328,3.902-8.927,6.853-13.703
							c3.637-5.912,8.159-11.883,13.339-17.747c-0.005-0.664,0.007-1.337,0.043-2c-5.657,6.289-10.58,12.701-14.488,19.046
							c-3.003,4.841-5.34,9.539-6.969,13.941c-5.695,15.396-1.8,24.342,2.481,29.121
							C318.731,433.921,332.815,435.784,351.046,430.956z"/>
					</g>
				</g>
				<g>
					<g style="opacity:0.4;">
						<path style="fill:#BA68C8;" d="M351.753,426.004c8.393-2.222,17.315-5.84,26.283-10.482
							c18.616-9.609,37.43-23.622,52.031-38.757c7.045-7.292,13.127-14.839,17.732-22.297c2.779-4.51,4.944-8.845,6.446-12.904
							c5.032-13.602,1.745-21.314-1.894-25.397c-6.395-7.157-19.034-8.68-35.571-4.291c-5.947,1.578-12.166,3.851-18.472,6.687
							c0.572,0.189,1.135,0.402,1.69,0.64c5.832-2.569,11.583-4.627,17.103-6.096c16.066-4.27,28.257-2.875,34.332,3.917
							c3.403,3.818,6.452,11.088,1.64,24.096c-1.471,3.976-3.598,8.245-6.334,12.676c-4.268,6.909-9.8,13.907-16.216,20.693
							c-15.141,16.053-35.153,30.952-54.797,40.809c-8.296,4.166-16.524,7.424-24.297,9.488
							c-16.073,4.253-28.264,2.859-34.328-3.929c-3.403-3.818-6.452-11.088-1.648-24.073c1.475-3.988,3.607-8.269,6.355-12.695
							c3.014-4.894,6.668-9.816,10.811-14.688c-0.046-0.599-0.076-1.206-0.094-1.808c-4.545,5.235-8.534,10.557-11.779,15.824
							c-2.79,4.505-4.96,8.852-6.466,12.923c-5.027,13.59-1.748,21.285,1.891,25.369
							C322.565,428.864,335.199,430.399,351.753,426.004z"/>
					</g>
				</g>
				<g style="opacity:0.5;">
					<path style="fill:#BA68C8;" d="M351.108,423.554c7.192-1.905,14.782-4.85,22.453-8.59
						c20.566-10.035,41.718-25.774,57.294-42.677c5.824-6.306,10.877-12.769,14.821-19.164c2.715-4.411,4.796-8.59,6.236-12.483
						c3.35-9.056,3.215-16.535-0.537-21.69c-5.368-7.363-17.428-9.006-33.966-4.617c-5.103,1.356-10.395,3.223-15.786,5.539
						c0.515,0.235,1.03,0.471,1.544,0.706c4.966-2.071,9.852-3.78,14.567-5.026c16.001-4.24,27.591-2.775,32.627,4.151
						c5.047,6.93,3.004,18.564-5.747,32.747c-3.641,5.901-8.232,11.876-13.512,17.725c-15.957,17.679-38.184,34.229-59.611,44.385
						c-7.074,3.357-14.047,6.008-20.691,7.769c-16.006,4.251-27.603,2.771-32.638-4.155c-3.483-4.796-3.579-11.841-0.4-20.434
						c1.414-3.822,3.473-7.941,6.175-12.316c2.576-4.18,5.617-8.387,9.046-12.556c-0.071-0.568-0.141-1.136-0.208-1.716
						c-3.77,4.513-7.117,9.078-9.9,13.599c-2.731,4.419-4.833,8.616-6.277,12.521c-3.341,9.032-3.19,16.504,0.55,21.654
						C322.527,426.292,334.582,427.947,351.108,423.554z"/>
				</g>
			</g>
		</g>
	</g>
	<g id="Mercury">
		<g id="Rings_1_">
			<g id="XMLID_1557_" style="opacity:0.5;">
				<path style="fill:#E0E0E0;" d="M416.125,198.397c-4.849,0-9.66-1.174-14.086-3.491c-7.334-3.84-12.729-10.346-15.193-18.316
					c-5.051-16.347,3.987-33.803,20.147-38.914c7.776-2.459,16.046-1.729,23.283,2.061c7.334,3.841,12.73,10.346,15.194,18.317
					c5.051,16.346-3.987,33.803-20.148,38.914C422.301,197.923,419.206,198.397,416.125,198.397z M407.102,138.018l0.108,0.343
					c-15.785,4.992-24.612,22.046-19.677,38.016c2.406,7.787,7.677,14.142,14.84,17.893c7.064,3.7,15.139,4.414,22.732,2.014
					c15.785-4.993,24.612-22.047,19.678-38.016c-2.406-7.788-7.677-14.143-14.84-17.893c-7.066-3.7-15.14-4.415-22.733-2.014
					L407.102,138.018z"/>
			</g>
			<g id="XMLID_1555_" style="opacity:0.4;">
				<path style="fill:#E0E0E0;" d="M416.124,200.648c-5.201,0-10.36-1.259-15.107-3.744c-7.865-4.118-13.651-11.095-16.294-19.644
					c-5.418-17.53,4.275-36.251,21.606-41.732l0,0c8.34-2.637,17.209-1.852,24.971,2.212c7.864,4.118,13.65,11.095,16.293,19.643
					c5.418,17.53-4.274,36.252-21.606,41.733C422.746,200.14,419.426,200.648,416.124,200.648z M406.546,136.213
					c-16.956,5.362-26.438,23.681-21.136,40.834c2.585,8.365,8.246,15.191,15.939,19.22c7.59,3.975,16.261,4.741,24.42,2.163
					c16.957-5.362,26.438-23.682,21.136-40.835c-2.585-8.364-8.245-15.189-15.94-19.219
					C423.376,134.401,414.702,133.634,406.546,136.213L406.546,136.213z"/>
			</g>
			<g id="XMLID_1553_" style="opacity:0.2;">
				<path style="fill:#E0E0E0;" d="M416.12,203.427c-5.634,0-11.224-1.364-16.365-4.057c-8.521-4.462-14.789-12.02-17.651-21.281
					c-5.869-18.992,4.632-39.274,23.408-45.212l0.108,0.343l-0.108-0.343c9.034-2.857,18.642-2.007,27.051,2.395
					c8.521,4.462,14.789,12.02,17.651,21.281c5.87,18.992-4.631,39.274-23.407,45.212
					C423.296,202.876,419.699,203.426,416.12,203.427z M416.197,131.936c-3.507,0-7.029,0.539-10.469,1.627l0,0
					c-18.401,5.818-28.69,25.698-22.938,44.313c2.805,9.077,8.948,16.484,17.298,20.857c8.236,4.314,17.648,5.147,26.501,2.348
					c18.401-5.819,28.69-25.698,22.936-44.313c-2.805-9.078-8.948-16.484-17.298-20.857
					C427.192,133.273,421.715,131.936,416.197,131.936z"/>
			</g>
			<g id="XMLID_1242_" style="opacity:0.1;">
				<path style="fill:#E0E0E0;" d="M416.116,206.882c-6.172,0-12.297-1.494-17.93-4.443c-9.336-4.889-16.205-13.171-19.342-23.319
					c-6.432-20.81,5.074-43.033,25.647-49.539c9.9-3.131,20.427-2.199,29.64,2.625c9.336,4.889,16.205,13.17,19.342,23.317
					c6.431,20.811-5.075,43.034-25.649,49.54C423.978,206.279,420.038,206.882,416.116,206.882z M404.6,129.923l0.108,0.343
					c-20.198,6.388-31.492,28.208-25.177,48.641c3.079,9.965,9.823,18.096,18.988,22.895c9.04,4.734,19.369,5.647,29.088,2.576
					c20.197-6.387,31.492-28.208,25.178-48.642c-3.079-9.964-9.823-18.095-18.988-22.894c-9.041-4.736-19.372-5.648-29.089-2.576
					L404.6,129.923z"/>
			</g>
		</g>
		<g id="Planet_1_">
			<path id="XMLID_1238_" style="fill:#E0E0E0;" d="M407.745,140.099c14.862-4.7,30.678,3.678,35.324,18.712
				c4.646,15.034-3.635,31.033-18.498,35.733c-14.862,4.7-30.678-3.677-35.324-18.712
				C384.601,160.797,392.883,144.799,407.745,140.099z"/>
			<path style="opacity:0.1;" d="M432.314,168.265c-2.584-0.893-5.759-0.26-7.445,1.913c-0.762,0.982-1.224,2.238-2.23,2.959
				c-1.537,1.101-3.708,0.506-5.287-0.533c-1.579-1.038-2.922-2.481-4.675-3.176c-1.563-0.62-3.374-0.568-4.9,0.14
				c-0.532,0.247-1.043,0.581-1.38,1.065c-0.868,1.243-0.342,2.949,0.211,4.365c0.77,1.971,1.54,3.942,2.311,5.914
				c0.612,1.566,1.194,3.455,0.231,4.831c-0.54,0.771-1.451,1.177-2.124,1.831c-1.563,1.52-1.538,4.201-0.412,6.076
				c0.14,0.233,0.293,0.455,0.457,0.668c5.471,1.89,11.561,2.105,17.502,0.227c6.873-2.173,12.335-6.766,15.765-12.559
				c-0.011-0.075-0.021-0.15-0.032-0.225c-0.408-2.732-0.947-5.486-2.175-7.954C436.902,171.338,434.899,169.158,432.314,168.265z"
				/>
			<path style="opacity:0.1;" d="M437.349,161.773c0.256-1.202,0.06-2.456-0.226-3.651c-0.852-3.568-2.841-7.241-6.28-8.411
				c-1.436-0.489-3.09-0.533-4.247-1.522c-1.139-0.974-1.474-2.614-1.467-4.123c0.006-1.245,0.191-2.496,0.134-3.735
				c-5.475-1.895-11.572-2.113-17.518-0.232c-6.332,2.003-11.463,6.059-14.915,11.215c1.075,0.906,2.375,1.526,3.771,1.694
				c2.77,0.333,5.763-0.865,8.273,0.366c3.769,1.849,3.765,7.747,7.255,10.09c2.434,1.634,5.677,0.957,8.459,0.055
				c2.782-0.901,5.795-1.972,8.539-0.959c2.032,0.751,3.962,2.617,6.02,1.943C436.305,164.124,437.093,162.976,437.349,161.773z"/>
			<path style="opacity:0.1;" d="M397.333,168.827c-0.794-2.464,0.066-5.266-0.852-7.685c-0.987-2.6-3.633-3.928-6.366-4.741
				c-2.447,5.961-2.921,12.789-0.868,19.431c1.242,4.019,3.289,7.557,5.896,10.502c1.466-0.025,2.925-0.27,4.317-0.783
				c2.538-0.935,5.001-3.025,5.068-5.757c0.055-2.246-1.505-4.18-3.104-5.74C399.825,172.494,398.022,170.964,397.333,168.827z"/>
			<path id="XMLID_1235_" style="opacity:0.1;" d="M411.882,139.126c10.565-1.134,25.307,14.128,23.644,30.623
				c-1.768,17.538-21.544,26.99-33.257,22.381l-0.009,0.004c6.551,3.753,14.561,4.861,22.313,2.409
				c14.863-4.7,23.145-20.699,18.498-35.733C438.853,145.166,425.436,137.005,411.882,139.126z"/>
			<path id="XMLID_1229_" style="opacity:0.1;" d="M424.572,194.544c14.863-4.7,23.145-20.699,18.498-35.733
				c-3.023-9.783-10.776-16.746-19.917-19.123c1.138,0.313,15.49,4.226,17.929,24.349c2.539,20.948-16.504,30.503-20.832,31.507
				C421.692,195.329,423.136,194.998,424.572,194.544z"/>
			<path style="opacity:0.4;fill:#FFFFFF;" d="M407.979,151.008c-0.727-2.352-3.201-3.662-5.526-2.927
				c-2.325,0.735-3.62,3.238-2.893,5.59c0.727,2.352,3.201,3.662,5.526,2.927C407.411,155.863,408.706,153.36,407.979,151.008z
				 M396.745,158.783c-3.997,1.264-6.224,5.567-4.975,9.61c1.249,4.043,5.503,6.296,9.5,5.032c3.997-1.264,6.224-5.566,4.975-9.61
				C404.995,159.773,400.741,157.519,396.745,158.783z M410.959,157.437c-1.831,0.579-2.851,2.55-2.279,4.402
				c0.572,1.852,2.521,2.883,4.351,2.305c1.831-0.579,2.851-2.549,2.279-4.401C414.738,157.89,412.79,156.859,410.959,157.437z"/>
			<g style="opacity:0.2;">
				<path d="M425.009,151.474c-2.025,0.64-6.472,0.463-7.635-1.246c-0.41-0.603-0.589-1.626,0.891-3.076
					c1.707-1.677,6.182-1.05,7.926,0.638c0.921,0.892,0.966,1.954,0.123,2.916c-0.249,0.285-0.571,0.459-0.882,0.606l0,0
					C425.307,151.371,425.165,151.425,425.009,151.474z M419.808,147.08c-0.416,0.132-0.775,0.326-1.047,0.592
					c-0.899,0.882-1.168,1.604-0.799,2.147c0.978,1.435,5.512,1.613,7.167,0.839c0.24-0.114,0.485-0.244,0.648-0.431
					c0.586-0.667,0.559-1.293-0.081-1.913C424.471,147.127,421.612,146.51,419.808,147.08z"/>
			</g>
			<g style="opacity:0.2;">
				<path d="M422.846,190.943c-1.105,0.349-2.142,0.457-3.086,0.32c-1.325-0.191-2.459-0.873-3.112-1.873
					c-0.866-1.325-0.76-2.771,0.285-3.868l0,0c0.647-0.681,1.615-1.17,2.652-1.338c1.359-0.22,3.674,0.691,4.955,1.95
					c0.781,0.769,1.138,1.603,1.033,2.413c-0.124,0.949-0.932,1.744-2.274,2.24C423.147,190.844,422.996,190.896,422.846,190.943z
					 M419.071,185.047c-0.64,0.202-1.212,0.544-1.623,0.977l0,0c-0.475,0.499-1.133,1.546-0.204,2.968
					c0.532,0.815,1.511,1.397,2.616,1.557c0.956,0.137,2.03-0.011,3.193-0.44c0.625-0.232,1.692-0.754,1.81-1.656
					c0.094-0.725-0.395-1.379-0.823-1.8c-1.228-1.208-3.306-1.922-4.342-1.755C419.484,184.933,419.274,184.983,419.071,185.047z"/>
			</g>
			<g>
				<path style="fill:#E0E0E0;" d="M427.949,166.05c-0.015,0.009-0.031,0.018-0.046,0.026c-1.661,0.954-1.022,2.876-1.263,4.449
					c-0.063,0.407-0.104,0.836,0.037,1.223c0.27,0.739,1.163,1.098,1.931,0.963c0.767-0.135,1.415-0.654,1.946-1.23
					c0.767-0.832,1.384-1.875,1.428-3.012C432.08,165.956,429.966,164.927,427.949,166.05z M425.008,161.148
					c-0.673-2.954-4.527-6.409-7.722-6.059c-3.36,0.367-6.106,5.608-5.17,8.691c0.475,1.564,1.951,2.661,3.519,3.061
					c1.569,0.399,3.224,0.204,4.81-0.117c1.658-0.335,3.463-0.936,4.275-2.436C425.232,163.346,425.247,162.196,425.008,161.148z
					 M397.668,168.667c-0.85,0.033-1.692,0.69-1.498,1.681c0.182,0.927,1.302,1.55,2.154,1.161c0.78-0.355,1.107-1.464,0.646-2.193
					C398.672,168.844,398.168,168.647,397.668,168.667z M406.282,183.662c-0.265-0.049-0.551-0.02-0.809,0.064
					c-0.866,0.283-1.773,1.413-0.682,2.16c0.331,0.226,0.767,0.216,1.159,0.135c0.91-0.187,1.865-1.399,0.816-2.158
					C406.621,183.759,406.455,183.694,406.282,183.662z"/>
				<path style="opacity:0.2;" d="M427.949,166.05c-0.015,0.009-0.031,0.018-0.046,0.026c-1.661,0.954-1.022,2.876-1.263,4.449
					c-0.063,0.407-0.104,0.836,0.037,1.223c0.27,0.739,1.163,1.098,1.931,0.963c0.767-0.135,1.415-0.654,1.946-1.23
					c0.767-0.832,1.384-1.875,1.428-3.012C432.08,165.956,429.966,164.927,427.949,166.05z M425.008,161.148
					c-0.673-2.954-4.527-6.409-7.722-6.059c-3.36,0.367-6.106,5.608-5.17,8.691c0.475,1.564,1.951,2.661,3.519,3.061
					c1.569,0.399,3.224,0.204,4.81-0.117c1.658-0.335,3.463-0.936,4.275-2.436C425.232,163.346,425.247,162.196,425.008,161.148z
					 M397.668,168.667c-0.85,0.033-1.692,0.69-1.498,1.681c0.182,0.927,1.302,1.55,2.154,1.161c0.78-0.355,1.107-1.464,0.646-2.193
					C398.672,168.844,398.168,168.647,397.668,168.667z M406.282,183.662c-0.265-0.049-0.551-0.02-0.809,0.064
					c-0.866,0.283-1.773,1.413-0.682,2.16c0.331,0.226,0.767,0.216,1.159,0.135c0.91-0.187,1.865-1.399,0.816-2.158
					C406.621,183.759,406.455,183.694,406.282,183.662z"/>
			</g>
		</g>
	</g>
</g>
<g id="Character">
	<g id="Astronaut_00000178889252872823875190000001451928437916504207_">
		<g id="Bottom_00000103243929526908753980000006208026911390414487_">
			<g>
				<path style="fill:#F0F0F0;" d="M264.781,293.331c-7.339-16.751-17.101-32.753-17.101-32.753l-93.345,16.483
					c-0.318,13.273,1.853,24.798,11.018,37.018c2.598,3.464,5.672,7.083,8.812,10.556c-1.318,3.264-2.89,8.75-2.483,15.809
					c0.676,11.733,5.322,16.217,5.322,16.217s1.343-0.102,5.55-0.229c-0.795,1.312-1.542,2.681-2.186,4.106
					c-4.261,9.442-9.497,21.881-9.497,21.881s2.18,9.223,9.71,14.329c7.53,5.106,14.004,3.489,14.004,3.489
					s25.703-24.774,33.101-31.592c4.956-4.567,10.929-11.331,12.024-13.889c13.024-1.552,22.751-8.35,26.601-13.768
					C273.183,331.319,272.995,312.082,264.781,293.331z"/>
				<g>
					<path style="fill:#E0E0E0;" d="M178.76,387.29l-2.88-0.97c1.904-5.792,9.341-24.894,16.452-35.202
						c6.357-9.216,7.173-10.399-5.785-24.921c-13.555-15.188-22.377-31.637-22.474-41.903l3.036-0.03
						c0.091,9.559,8.604,25.212,21.691,39.876c13.078,14.655,13.697,17.608,6.022,28.735
						C187.988,362.784,180.554,381.838,178.76,387.29z"/>
				</g>
				<path style="fill:#E0E0E0;" d="M239.711,354.758c5.754-14.279,1.581-27.279-2.706-36.247
					c-4.287-8.968-10.651-17.543-10.651-17.543s13.691-7.694,17.004-18.22c1.209,10.053-8.56,20.235-8.56,20.235
					S254.6,334.792,239.711,354.758z"/>
			</g>
			<g>
				<path style="fill:#455A64;" d="M188.242,347.646c-1.649,2.07-3.732,5.035-5.665,8.751c-0.246,0.013-0.479,0.037-0.713,0.061
					l-0.112,0.006c-3.756,0.315-6.645,0.719-7.933,1.558c-2.62,1.703-6.19,12.188-7.936,19.234
					c-1.757,7.058-9.872,9.214-15.257,7.284c-5.384-1.92-12.089-15.59-8.656-25.478c3.444-9.889,8.117-11.498,8.408-17.708
					c0.279-6.209,0.779-10.346,4.122-13.832c7.356-2.965,8.142-0.346,15.083-2.904c1.043-0.384,2.171-0.864,3.33-1.401
					l11.484,13.018C185.148,340.927,186.641,344.855,188.242,347.646z"/>
				<path style="fill:#37474F;" d="M174.165,324.636l17.212,19.502c0,0-4.748,4.435-8.822,12.296l-2.186,0.072
					c0,0,1.469-9.073,6.149-12.435L174.165,324.636z"/>
			</g>
			<path style="fill:#455A64;" d="M207.127,388.184l-2.182,2.093c-13.181-0.54-26.931-15.33-28.388-21.121l1.184-2.708
				c-2.98-1.515-7.45,12.255-11.995,19.363c-4.014,6.278-6.205,4.674-10.296,11.526c-0.577,4.821,1.491,8.427,4.97,13.548
				c3.479,5.122,0.717,9.259,3.878,19.245c3.161,9.986,16.667,16.781,22.107,15.028c5.44-1.752,10.622-8.435,7.813-15.124
				c-2.809-6.689-6.229-17.222-5.155-20.181c1.074-2.959,8.336-9.146,15.373-15.95C209.281,389.219,207.127,388.184,207.127,388.184
				z"/>
		</g>
		<g id="Top_00000158722435336197791890000016899587191206575549_">
			<g>
				<path style="fill:#E0E0E0;" d="M217.871,186.205c15.029-3.785,23.629,6.137,35.499,6.382
					c12.971,0.267,18.045-4.191,22.964-14.331c8.834-5.098,19.491,0.478,21.369,5.601c-1.583,23.992-14.254,34.809-29.019,40.547
					c-13.974,5.431-31.621,3.599-41.533,0.206C213.321,209.49,215.188,192.727,217.871,186.205z"/>
				<g>
					<path style="fill:#455A64;" d="M274.263,165.302c0.791,0.889,1.326,1.982,2.091,2.894c0.588,0.701,1.309,1.288,2.111,1.719
						c0.521,0.28,1.081,0.498,1.541,0.871c1.124,0.91,0.576,1.814,0,2.852c-1.026,1.847-2.151,3.632-3.263,5.425
						c0.341,1.784,3.622,4.208,6.164,5.241c5.171,2.103,12.063,2.503,14.17,0.055c1.063-4.061,1.679-9.229,2.024-13.409
						c0.138-1.679,0.181-3.393-0.234-5.025c-0.333-1.307-0.951-2.523-1.645-3.677c-2.42-4.027-5.941-7.508-10.305-9.16
						c-4.363-1.652-9.603-1.251-13.279,1.643c-0.836,0.658-1.674,1.47-2.731,1.528c-1.291,0.07-2.481-0.737-3.842-0.666
						c-1.447,0.076-2.879,0.631-3.957,1.619c-0.318,0.292-0.613,0.625-0.776,1.028c-0.611,1.506,0.792,2.144,1.954,2.666
						c1.678,0.753,3.494,1.125,5.245,1.679C271.284,163.141,273.035,163.923,274.263,165.302z"/>
					<path style="fill:#BA68C8;" d="M276.334,178.257c-1.439,2.783-6.022,9.433-11.692,11.765
						c-0.939,6.335,11.531,21.022,25.51,19.487c3.695-5.126,8.304-15.085,7.55-25.651
						C290.517,187.58,278.305,184.115,276.334,178.257z"/>
					<g>
						<path style="fill:#E0E0E0;" d="M316.217,235.55c1.053,2.254-3.902,4.623-4.955,2.369L241.85,89.372
							c-0.946-2.025,4.009-4.394,4.955-2.369L316.217,235.55z"/>
						<g>
							<path style="fill:#BA68C8;" d="M291.846,84.467c-15.368,11.134-29.595-8.499-45.437,5.244l14.449,30.517
								c8.339-12.341,27.047-3.598,37.874-17.623c8.074-10.459,6.077-19.973,11.548-24.977c0.631-0.577,0.201-1.654-0.649-1.661
								C302.53,75.91,297.947,80.048,291.846,84.467z"/>
							<path style="opacity:0.5;fill:#FFFFFF;" d="M268.648,90.842l3.322,3.681l4.88-0.682c0.955-0.133,1.646,0.899,1.17,1.746
								l-2.434,4.333l2.149,4.485c0.42,0.877-0.336,1.861-1.28,1.665l-4.826-1.002l-3.552,3.453
								c-0.695,0.676-1.854,0.252-1.961-0.717l-0.549-4.953l-4.344-2.35c-0.85-0.46-0.81-1.706,0.068-2.109l4.487-2.059l0.867-4.906
								C266.814,90.469,267.998,90.122,268.648,90.842z"/>
						</g>
					</g>
					<path style="fill:#455A64;" d="M288.329,148.346c-0.588-0.186-1.138-0.425-1.629-0.865c-0.881-0.789-1.647-1.701-2.539-2.479
						c-0.939-0.818-1.925-1.624-3.091-2.048c-0.885-0.322-1.836-0.408-2.775-0.459c-2.774-0.149-5.618,0.039-7.676,2.155
						c-0.647,0.666-1.239,1.386-1.767,2.152c-0.475,0.688-0.888,1.417-1.28,2.156c-0.381,0.717-0.731,1.332-0.881,2.151
						c-0.033,0.184-0.057,0.381,0.022,0.55c0.07,0.151,0.212,0.254,0.355,0.336c0.979,0.564,2.237,0.427,3.243-0.085
						c1.634-0.831,2.554-2.609,4.332-3.209c0.781-0.263,1.634-0.285,2.433-0.092c0.601,0.146,1.627,0.625,1.828,1.329
						c-1.204,0.352-2.444,0.464-3.623,0.944c-0.995,0.405-2.145,1.055-2.751,1.988c-0.662,1.019-1.025,2.233-1.308,3.405
						c-0.286,1.182-0.488,2.459-0.084,3.639c0.15,0.438,0.39,0.858,0.755,1.139c0.365,0.281,0.868,0.403,1.296,0.236
						c-0.073,0.842,0.608,1.613,1.405,1.866c0.797,0.253,1.668,0.088,2.455-0.195c0.648-0.233,1.268-0.545,1.843-0.926
						c-0.259,0.495-0.296,1.103-0.1,1.627c0.43,1.148,1.857,1.473,2.928,1.667c1.286,0.233,2.596,0.325,3.901,0.273
						c-0.124,2.998,1.905,5.769,4.477,7.262c2.573,1.493,5.609,1.921,8.569,2.1c0.748-5.375,0.963-10.968-0.72-16.123
						c-0.338-1.034-0.787-1.967-1.331-2.902c-0.392-0.673-0.998-1.145-1.367-1.829c-0.192-0.355-0.324-0.746-0.563-1.071
						c-0.59-0.803-1.712-1.058-2.308-1.857c-0.267-0.358-0.407-0.799-0.658-1.168c-0.514-0.755-1.423-1.118-2.297-1.36
						C289.05,148.549,288.683,148.457,288.329,148.346z"/>
					<g>
						<path style="fill:#37474F;" d="M270.62,144.65c-1.542,1.706-2.732,3.76-3.593,5.878c-0.11,0.403-0.277,0.957-0.061,1.131
							c0.622,0.485,1.613,0.563,2.43,0.323c1.842-0.491,2.753-2.311,4.389-3.261c0.87-0.514,1.917-0.698,2.912-0.567
							c1.051,0.181,2.137,0.537,2.595,1.673c0.073,0.213-0.056,0.445-0.274,0.498c-2.111,0.549-4.207,0.766-5.736,2.305
							c-1.263,1.515-1.754,3.807-1.906,5.748c-0.052,1.009,0.457,2.795,1.66,2.479c0.234-0.089,0.496,0.029,0.584,0.263
							c0.11,2.708,3.561,1.615,5.038,0.558c0.351-0.258,0.828,0.185,0.613,0.551c-1.201,3.064,4.48,2.952,6.35,3.016
							c0.203-0.006,0.369,0.167,0.357,0.369c-0.095,6.49,7.201,9.099,12.693,9.348c-5.779,0.118-13.36-2.503-13.401-9.377
							c0,0,0.368,0.369,0.368,0.369c-2.586,0.094-8.691-0.021-7.121-4.118c0,0,0.612,0.551,0.612,0.551
							c-1.063,0.685-2.195,1.226-3.492,1.328c-1.383,0.144-3.006-0.883-2.903-2.466c0,0,0.623,0.467,0.623,0.467
							c-1.009,0.376-1.984-0.29-2.376-1.023c-0.805-1.432-0.551-3.09-0.188-4.564c0.385-1.459,0.789-2.946,1.871-4.106
							c1.609-1.654,4.106-1.985,6.129-2.473c0,0-0.274,0.498-0.274,0.498c-0.786-1.389-3.097-1.484-4.402-0.741
							c-1.576,0.882-2.672,2.752-4.589,3.175c-0.951,0.226-2.037,0.184-2.868-0.538c-0.573-0.831,0.291-2.047,0.652-2.808
							C268.258,147.532,269.238,145.92,270.62,144.65L270.62,144.65z"/>
					</g>
					<path style="fill:#37474F;" d="M286.164,149.026c-1.246-0.258-2.565-0.192-3.828-0.133c-0.658,0.031-1.312,0.121-1.963,0.218
						c-0.359,0.054-0.715,0.115-1.07,0.187c-0.27,0.055-0.56,0.086-0.797,0.238c-0.25,0.16-0.117,0.448,0.086,0.625
						c-0.027-0.011,0.01,0.017,0.037,0.039c0.007,0.005,0.012,0.012,0.02,0.017c0.015,0.012-0.001,0.004,0.021,0.019
						c0.049,0.033,0.103,0.053,0.16,0.063c0.007,0.002,0.015-0.001,0.023,0c0.01,0.001,0.02,0.012,0.03,0.012
						c-0.012-0.007-0.011-0.006-0.023-0.012c0.138,0.03,0.283,0.024,0.421,0.006c0.304-0.039,0.606-0.107,0.909-0.158
						c0.898-0.15,1.796-0.287,2.694-0.431c1.099-0.176,2.234-0.245,3.314-0.518C286.268,149.18,286.22,149.038,286.164,149.026z"/>
					<path style="fill:#37474F;" d="M288.411,155.089c-0.508-0.393-1.115-0.518-1.724-0.679c-0.703-0.187-1.428-0.371-2.152-0.451
						c-1.419-0.157-2.851,0.025-4.227,0.393c-1.373,0.366-2.698,0.938-3.869,1.756c-1.518,1.058-2.166,2.588-3,4.194
						c-0.071,0.137,0.159,0.483,0.291,0.32c1.036-1.278,1.954-2.659,3.342-3.576c1.187-0.785,2.509-1.384,3.882-1.743
						c1.264-0.331,2.566-0.427,3.866-0.452c0.632-0.013,1.237-0.011,1.864,0.082c0.572,0.085,1.15,0.368,1.731,0.315
						C288.477,155.24,288.441,155.112,288.411,155.089z"/>
					<path style="fill:#37474F;" d="M287.464,159c-0.31-0.244-0.792-0.33-1.17-0.397c-0.355-0.063-0.734-0.045-1.093-0.03
						c-0.799,0.032-1.583,0.187-2.346,0.423c-1.289,0.398-2.437,1.059-3.227,2.192c-0.051,0.073-0.102,0.162-0.073,0.246
						c0.007,0.021,0.021,0.042,0.043,0.049c0.025,0.008,0.052-0.005,0.075-0.019c0.365-0.208,0.73-0.416,1.095-0.624
						c0.313-0.178,0.623-0.301,0.944-0.454c0.638-0.304,1.297-0.553,1.984-0.72c0.663-0.16,1.347-0.256,2.027-0.294
						c0.373-0.021,0.732-0.03,1.101-0.082c0.229-0.032,0.469,0.027,0.663-0.117C287.537,159.137,287.504,159.031,287.464,159z"/>
				</g>
			</g>
			<g>
				<path style="fill:#455A64;" d="M154.445,273.235c-1.328,3.45,0.681,8.258,7.963,11.655c7.282,3.397,18.872,6.084,38.556,3.258
					c16.894-2.426,31.308-8.415,39.583-15.889c4.451-4.02,9.339-11.011,6.07-14.608L154.445,273.235z"/>
				<path style="fill:#F0F0F0;" d="M246.616,257.65c-2.112,7.27-14.143,19.959-43.259,24.859
					c-28.591,4.812-50.738-3.323-50.524-12.975c0.134-14.779-8.623-25.069-11.588-41.218c-3.318-18.072,2.726-28.17,2.726-28.17
					c28.005-17.369,72.082-12.185,81.155-13.385c10.987,7.211,17.07,16.173,16.591,40.779
					C241.499,238.777,248.474,242.288,246.616,257.65z"/>
			</g>
			<g>
				<g>
					<g>
						<path style="fill:#BA68C8;" d="M238.109,231.62c-0.1-1.407-0.588-2.335-1.308-2.804l0.023-0.023l-5.248-3.357
							c0,0-0.017,0.021-0.021,0.025c-0.901-0.584-2.174-0.435-3.605,0.572c-9.144,6.437-20.349,10.589-34.318,13.589
							c-3.072,0.66-5.358,3.678-5.086,6.843l1.329,15.423c0.151,1.753,1.061,3.206,2.364,4.051c0,0,0,0.004,0,0.004l5.303,3.392
							c1.04,0.652,2.323,0.919,3.67,0.646c13.776-2.795,25.979-7.909,33.898-13.148c2.628-1.739,4.372-6.003,4.145-9.172
							L238.109,231.62z"/>
						<path style="opacity:0.2;" d="M188.546,246.464l1.329,15.423c0.151,1.753,1.061,3.206,2.364,4.051c0,0,0,0.004,0,0.004
							l5.303,3.392c0.143,0.09,0.3,0.153,0.452,0.228l-1.138-21.719l-7.478-5.006C188.763,243.926,188.436,245.178,188.546,246.464z
							"/>
						<path style="fill:#BA68C8;" d="M233.192,229.385c-9.144,6.437-20.349,10.589-34.318,13.589
							c-3.072,0.66-5.358,3.678-5.086,6.843l1.329,15.423c0.273,3.165,3.016,5.365,6.095,4.74
							c13.776-2.795,25.979-7.909,33.898-13.148c2.629-1.739,4.372-6.004,4.145-9.172l-1.147-16.04
							C237.883,228.451,235.77,227.571,233.192,229.385z"/>
						<path style="opacity:0.3;fill:#FFFFFF;" d="M233.192,229.385c-9.144,6.437-20.349,10.589-34.318,13.589
							c-3.072,0.66-5.358,3.678-5.086,6.843l1.329,15.423c0.273,3.165,3.016,5.365,6.095,4.74
							c13.776-2.795,25.979-7.909,33.898-13.148c2.629-1.739,4.372-6.004,4.145-9.172l-1.147-16.04
							C237.883,228.451,235.77,227.571,233.192,229.385z"/>
					</g>
					<g>
						<path style="fill:#BA68C8;" d="M201.896,266.423c-0.034-0.485-0.053-0.969-0.103-1.454c-0.041-0.4-0.097-0.8-0.128-1.201
							c-0.139-1.836-0.294-3.67-0.466-5.503c-0.167-1.786-0.35-3.57-0.548-5.352c-0.109-0.985-0.235-1.968-0.364-2.951
							c-0.134-1.017-0.215-2.135-0.576-3.095c-0.177-0.471-1.195-0.535-1.237,0.059c-0.127,1.787,0.273,3.701,0.465,5.478
							c0.188,1.734,0.379,3.468,0.547,5.204c0.163,1.689,0.313,3.38,0.448,5.072c0.068,0.846,0.132,1.692,0.193,2.539
							c0.043,0.599-0.094,1.605,0.41,2.031c0.322,0.272,0.756,0.32,1.109,0.057c0.217-0.161,0.281-0.323,0.269-0.602
							c-0.001-0.034-0.004-0.068-0.007-0.102C201.904,266.544,201.9,266.484,201.896,266.423z M206.865,265.022
							c-0.033-0.484-0.054-0.969-0.103-1.454c-0.04-0.4-0.097-0.8-0.128-1.201c-0.139-1.836-0.295-3.67-0.466-5.503
							c-0.167-1.786-0.35-3.57-0.548-5.352c-0.109-0.985-0.234-1.968-0.364-2.951c-0.134-1.017-0.215-2.135-0.576-3.095
							c-0.177-0.471-1.195-0.535-1.237,0.059c-0.127,1.787,0.273,3.701,0.465,5.478c0.188,1.734,0.379,3.468,0.547,5.204
							c0.163,1.689,0.313,3.38,0.448,5.072c0.068,0.846,0.132,1.692,0.193,2.538c0.043,0.599-0.094,1.605,0.41,2.031
							c0.323,0.272,0.756,0.32,1.109,0.057c0.217-0.161,0.281-0.323,0.269-0.602c-0.001-0.034-0.004-0.068-0.007-0.102
							C206.873,265.143,206.869,265.083,206.865,265.022z M212.075,263.679c-0.005-0.06-0.009-0.121-0.013-0.181
							c-0.033-0.485-0.054-0.969-0.103-1.454c-0.041-0.4-0.097-0.8-0.128-1.201c-0.139-1.836-0.295-3.67-0.466-5.502
							c-0.167-1.786-0.35-3.57-0.548-5.352c-0.109-0.985-0.235-1.968-0.364-2.951c-0.134-1.017-0.215-2.135-0.576-3.095
							c-0.177-0.471-1.195-0.535-1.237,0.059c-0.127,1.787,0.273,3.701,0.465,5.478c0.188,1.734,0.379,3.468,0.547,5.204
							c0.163,1.689,0.313,3.38,0.448,5.072c0.068,0.846,0.132,1.692,0.193,2.538c0.043,0.599-0.094,1.605,0.41,2.031
							c0.322,0.272,0.756,0.319,1.109,0.057c0.217-0.161,0.281-0.323,0.269-0.602C212.08,263.747,212.077,263.713,212.075,263.679z"
							/>
						<g style="opacity:0.2;">
							<path d="M211.095,262.822c-0.033-0.485-0.053-0.969-0.103-1.454c-0.041-0.4-0.097-0.8-0.128-1.201
								c-0.139-1.835-0.295-3.67-0.466-5.502c-0.167-1.786-0.35-3.57-0.548-5.352c-0.109-0.985-0.234-1.968-0.364-2.951
								c-0.119-0.904-0.208-1.883-0.477-2.764c-0.197,0.05-0.354,0.18-0.37,0.405c-0.127,1.787,0.273,3.701,0.465,5.478
								c0.188,1.734,0.379,3.468,0.547,5.204c0.163,1.689,0.313,3.38,0.448,5.072c0.068,0.846,0.132,1.692,0.193,2.538
								c0.031,0.435-0.027,1.082,0.129,1.568c0.145-0.016,0.29-0.057,0.423-0.156c0.217-0.161,0.281-0.323,0.269-0.602
								c-0.001-0.034-0.004-0.068-0.007-0.102C211.104,262.943,211.099,262.882,211.095,262.822z"/>
							<path d="M200.929,265.747c-0.034-0.484-0.053-0.969-0.103-1.454c-0.041-0.4-0.098-0.8-0.128-1.201
								c-0.139-1.835-0.294-3.67-0.466-5.503c-0.167-1.786-0.35-3.57-0.548-5.352c-0.109-0.985-0.234-1.968-0.364-2.951
								c-0.119-0.905-0.208-1.883-0.477-2.764c-0.197,0.05-0.354,0.18-0.37,0.405c-0.127,1.787,0.273,3.701,0.465,5.478
								c0.188,1.734,0.379,3.468,0.547,5.204c0.163,1.689,0.313,3.38,0.448,5.072c0.068,0.846,0.132,1.692,0.193,2.539
								c0.031,0.435-0.027,1.081,0.13,1.568c0.145-0.016,0.29-0.057,0.423-0.156c0.217-0.161,0.281-0.323,0.269-0.602
								c-0.001-0.034-0.004-0.068-0.007-0.102C200.938,265.868,200.933,265.808,200.929,265.747z"/>
							<path d="M205.898,264.346c-0.034-0.485-0.054-0.969-0.103-1.454c-0.041-0.4-0.097-0.8-0.128-1.201
								c-0.139-1.835-0.295-3.67-0.466-5.502c-0.167-1.786-0.35-3.57-0.548-5.352c-0.109-0.985-0.234-1.968-0.364-2.951
								c-0.119-0.905-0.207-1.883-0.477-2.764c-0.197,0.05-0.354,0.18-0.37,0.405c-0.127,1.787,0.273,3.701,0.465,5.478
								c0.188,1.734,0.379,3.468,0.547,5.204c0.163,1.689,0.313,3.38,0.448,5.072c0.068,0.846,0.132,1.692,0.193,2.538
								c0.031,0.435-0.027,1.081,0.129,1.568c0.146-0.016,0.29-0.057,0.423-0.156c0.217-0.161,0.281-0.323,0.269-0.602
								c-0.001-0.034-0.004-0.068-0.007-0.102C205.906,264.467,205.902,264.407,205.898,264.346z"/>
						</g>
					</g>
					<g>
						<path style="fill:#263238;" d="M222.583,241.237c0.56,0.288,0.931,0.95,0.982,1.918c0.101,1.936-1.119,4.362-2.726,5.419
							c-0.803,0.529-1.551,0.615-2.111,0.327c-0.34-0.175-1.632-0.84-1.972-1.015c-0.56-0.288-0.931-0.95-0.982-1.918
							c-0.101-1.936,1.119-4.362,2.726-5.419c0.803-0.529,1.551-0.614,2.111-0.326C220.95,240.397,222.243,241.062,222.583,241.237z
							"/>
						<path style="fill:#455A64;" d="M220.839,248.574c-0.803,0.529-1.551,0.615-2.111,0.326c-0.56-0.288-0.931-0.95-0.982-1.918
							c-0.101-1.936,1.119-4.362,2.726-5.419c0.803-0.528,1.551-0.614,2.111-0.326c0.56,0.288,0.931,0.95,0.982,1.918
							C223.666,245.091,222.445,247.518,220.839,248.574z"/>
					</g>
					<g>
						<path style="fill:#E0E0E0;" d="M234.553,235.981c0.56,0.288,0.931,0.95,0.982,1.918c0.101,1.936-1.119,4.362-2.726,5.419
							c-0.803,0.529-1.551,0.615-2.111,0.326c-0.34-0.175-1.632-0.84-1.972-1.015c-0.56-0.288-0.931-0.95-0.982-1.918
							c-0.101-1.936,1.119-4.362,2.726-5.419c0.803-0.529,1.551-0.614,2.111-0.326C232.921,235.141,234.214,235.806,234.553,235.981
							z"/>
						<path style="fill:#F5F5F5;" d="M232.81,243.319c-0.803,0.528-1.551,0.615-2.111,0.326c-0.56-0.288-0.931-0.95-0.982-1.918
							c-0.101-1.936,1.119-4.362,2.726-5.419c0.803-0.528,1.551-0.615,2.111-0.326c0.56,0.288,0.931,0.95,0.982,1.918
							C235.637,239.835,234.417,242.262,232.81,243.319z"/>
					</g>
					<g>
						<path style="fill:#263238;" d="M223.219,253.391c0.56,0.288,0.931,0.95,0.982,1.918c0.101,1.936-1.119,4.362-2.726,5.419
							c-0.803,0.529-1.551,0.615-2.111,0.326c-0.34-0.175-1.632-0.84-1.972-1.015c-0.56-0.288-0.931-0.95-0.982-1.918
							c-0.101-1.936,1.119-4.362,2.726-5.419c0.803-0.529,1.551-0.614,2.111-0.326C221.587,252.55,222.879,253.216,223.219,253.391z
							"/>
						<path style="fill:#455A64;" d="M221.476,260.728c-0.803,0.528-1.551,0.615-2.111,0.326c-0.56-0.288-0.931-0.95-0.982-1.918
							c-0.101-1.936,1.119-4.362,2.726-5.419c0.803-0.529,1.551-0.615,2.111-0.326c0.56,0.288,0.931,0.95,0.982,1.918
							C224.303,257.245,223.082,259.671,221.476,260.728z"/>
					</g>
					<g>
						<path style="fill:#263238;" d="M235.19,248.135c0.56,0.288,0.931,0.95,0.982,1.918c0.101,1.936-1.119,4.362-2.726,5.419
							c-0.803,0.529-1.551,0.615-2.111,0.327c-0.34-0.175-1.632-0.84-1.972-1.015c-0.56-0.288-0.931-0.95-0.982-1.918
							c-0.101-1.936,1.119-4.362,2.726-5.419c0.803-0.529,1.551-0.614,2.111-0.326C233.558,247.295,234.85,247.96,235.19,248.135z"
							/>
						<path style="fill:#455A64;" d="M233.447,255.472c-0.803,0.528-1.551,0.614-2.111,0.326c-0.56-0.288-0.931-0.95-0.982-1.918
							c-0.101-1.936,1.119-4.362,2.726-5.419c0.803-0.528,1.551-0.615,2.111-0.326c0.56,0.288,0.931,0.95,0.982,1.918
							C236.274,251.989,235.053,254.415,233.447,255.472z"/>
					</g>
				</g>
				<path style="fill:#455A64;" d="M189.045,252.25c-7.381,3.791-31.197,8.102-40.39-1.614c-1.757,2.675-0.809,6.137,1.983,9.006
					c2.792,2.869,9.192,5.851,18.309,5.468c15.177-0.639,22.576-4.221,22.576-4.221s2.473-1.456,1.608-5.513
					C192.266,251.319,189.045,252.25,189.045,252.25z"/>
			</g>
			<g>
				<path style="fill:#E0E0E0;" d="M153.116,243.314c-4.665,1.921-12.47,5.735-17.596,12.766
					c-5.913,8.109-7.589,18.622-3.673,26.041c-8.066,9.392-17.131,9.198-22.369,8.503c-10.018-15.931-10.663-36.241-4.845-51.12
					c5.818-14.879,14.992-29.303,39.337-39.358C156.266,199.766,164.339,230.954,153.116,243.314z"/>
				<g>
					<path style="fill:#455A64;" d="M106.548,282.484c-0.111,0.199-0.218,0.403-0.322,0.612c-0.087,0.176-0.173,0.361-0.171,0.557
						c0.002,0.252,0.147,0.478,0.289,0.685c1.151,1.674,2.505,3.198,3.652,4.875c1.147,1.677,2.1,3.557,2.302,5.586
						c0.274,2.757,0.003,5.47,0.507,8.246c0.537,2.957,1.414,5.836,2.294,8.703c0.727,2.369,1.705,4.15,3.485,5.852
						c1.689,1.614,3.83,2.655,5.973,3.5c1.17,0.461,2.459,0.54,3.715,0.592c1.082,0.045,2.677,0.444,3.707,0.066
						c0.254-0.093,0.504-0.235,0.652-0.459c0.247-0.372,0.154-0.859-0.006-1.265c-0.408-1.036-1.184-1.903-2.105-2.547
						c-1.732-1.212-4.016-1.595-5.319-3.391c-0.515-0.71-0.798-1.675-1.004-2.521c-0.046-0.19,0.073-0.455,0.271-0.425
						c0.477,0.453,0.835,1.034,1.316,1.462c0.535,0.477,1.375,0.793,2.034,1.076c1.38,0.594,2.853,0.987,4.356,1.177
						c3.006,0.38,6.15-0.054,8.932-1.338c0.748-0.345,1.486-0.759,2.031-1.372c0.69-0.775,1.095-2.232,0.366-3.091
						c-0.343-0.404-0.868-0.619-1.392-0.747c0.511-0.337,0.766-0.978,0.707-1.57c-0.059-0.592-0.399-1.128-0.852-1.516
						c-0.446-0.383-0.993-0.577-1.568-0.713c0.182-0.617,0.025-1.293-0.333-1.818c-0.358-0.525-0.899-0.91-1.485-1.178
						c-0.486-0.222-1.017-0.376-1.427-0.713c-0.794-0.653-0.968-1.906-1.067-2.869c-0.122-1.189-0.007-2.391-0.019-3.585
						c-0.036-3.491-1.464-6.805-3.491-9.524c-1.795-2.407-5.195-7.174-6.977-9.581c-0.669-0.904-1.986-1.083-3.019-1.132
						c-3.122-0.147-6.401,0.887-9.197,2.213C110.428,277.735,108.129,279.635,106.548,282.484z"/>
					<path style="fill:#37474F;" d="M137.988,305.32c-0.51-0.034-1.011-0.115-1.518-0.169c-0.511-0.055-1.026-0.124-1.526-0.238
						c-0.655-0.148-1.304-0.327-1.867-0.688c-0.057-0.036-0.116-0.077-0.145-0.137c-0.06-0.124,0.025-0.267,0.102-0.385
						c0.157-0.239,0.978-1.631,0.616-1.813c-0.512,0.621-1.024,1.242-1.536,1.862c-0.217,0.263-0.415,0.533-0.681,0.744
						c-0.296,0.235-0.575,0.492-0.873,0.726c-0.062,0.048-0.127,0.089-0.189,0.137c-0.007-0.366-0.083-0.745-0.224-1.124
						c-0.37-0.992-1.003-1.875-1.806-2.572c-0.773-0.671-1.603-0.981-2.496-1.34c0.126-0.399,0.518-0.893,0.673-1.185
						c0.262-0.495,0.516-0.995,0.737-1.509c0.444-1.035,0.751-2.1,0.766-3.22c0.029-2.159-1.179-3.631-2.858-4.838
						c-0.213-0.153-0.305,0.072-0.228,0.255c0.589,1.397,1.509,2.76,1.481,4.333c-0.028,1.555-0.723,3.035-1.447,4.402
						c-0.263,0.497-0.829,1.212-0.888,1.779c-0.073,0.695,0.46,0.928,1.021,1.115c1.302,0.435,2.373,1.139,3.069,2.332
						c0.3,0.516,0.935,1.624,0.273,2.111c-0.524,0.385-1.55,0.295-2.175,0.348c-1.459,0.122-3.024,0.221-4.44-0.16
						c-1.522-0.41-2.553-1.416-3.555-2.538c-0.509-0.57-1.016-1.135-1.539-1.693c-0.533-0.568-1.026-1.272-1.677-1.712
						c-0.066-0.045-0.071,0.079-0.061,0.111c0.38,1.273,1.414,2.594,2.212,3.645c0.742,0.977,1.568,1.919,2.642,2.56
						c1.896,1.133,4.2,1.254,6.387,1.136c0.262-0.014,0.539-0.027,0.819-0.043c-0.608,0.342-1.226,0.663-1.791,1.078
						c-0.066,0.048-0.024,0.206,0.062,0.198c1.275-0.107,2.542-0.733,3.674-1.465c2.921,1.689,6.658,2.614,10.002,1.649
						c0.109-0.032,0.053-0.27-0.051-0.268c-1.806,0.018-3.63-0.033-5.386-0.451c-1.323-0.315-2.566-0.849-3.744-1.497
						c0.16-0.116,0.331-0.23,0.482-0.346c0.685-0.523,1.313-1.116,1.907-1.737c0.073,0.051,0.148,0.092,0.227,0.132
						c0.112,0.058,0.226,0.114,0.34,0.167c0.229,0.107,0.463,0.204,0.7,0.293c0.498,0.187,1.006,0.335,1.531,0.436
						c0.543,0.105,1.078,0.166,1.635,0.169c0.491,0.002,0.954-0.117,1.428-0.25C138.227,305.617,138.112,305.328,137.988,305.32z"/>
				</g>
				<path style="fill:#BA68C8;" d="M130.946,266.092c-0.548,2.954-1.647,11.408,0.901,16.029
					c-10.402-4.711-20.829,2.248-22.369,8.503c-4.649-4.85-7.823-12.855-8.827-25.309
					C111.745,258.167,124.594,260.022,130.946,266.092z"/>
			</g>
			<g id="Helmet_00000150801170610151223530000009447504922292626840_">
				<g>
					<g>
						<g>
							<path style="fill:#455A64;" d="M228.669,180.458c-14.326-23.557-72.104-17.546-80.084,9.045
								c-0.547,1.822-0.79,3.727-0.75,5.631c0.034,1.676,0.204,3.436,0.455,5.017c0.319,2.002,0.915,3.956,1.852,5.749
								c13.045,24.966,72.624,19.217,80.765-7.803c0.585-1.941,0.805-3.974,0.743-6.002c-0.041-1.329-0.16-2.767-0.359-4.162
								C230.913,185.288,230.053,182.734,228.669,180.458z"/>
						</g>
						<g>
							<path style="fill:#37474F;" d="M170.551,214.081c0.192,1.813-0.043,2.829-0.25,3.725c-0.159,0.689-0.297,1.308-0.18,2.109
								c0.17,0.045,0.342,0.086,0.513,0.129c-0.163-0.805-0.034-1.378,0.139-2.126c0.205-0.888,0.46-1.993,0.259-3.889
								c-0.219-2.069,0.051-3.806,2.082-5.557l-0.315-0.373C170.608,209.988,170.316,211.857,170.551,214.081z"/>
							<path style="fill:#37474F;" d="M191.653,213.931c-10.271,0.993-20.758-0.299-29.01-4.11l0,0
								c-8.042-3.714-12.799-9.242-13.396-15.563c-0.597-6.322,3.04-12.66,10.241-17.847c14.776-10.645,40.222-13.104,56.724-5.481
								c8.042,3.715,12.799,9.242,13.396,15.563c0.597,6.321-3.04,12.66-10.241,17.847
								C211.98,209.662,201.923,212.938,191.653,213.931z M187.248,167.301c-10.184,0.984-20.153,4.232-27.479,9.509
								c-7.054,5.082-10.62,11.262-10.04,17.401c0.58,6.14,5.238,11.525,13.115,15.164c16.361,7.558,41.59,5.119,56.242-5.434
								c7.054-5.082,10.619-11.262,10.04-17.401c-0.58-6.139-5.238-11.525-13.115-15.164
								C207.831,167.597,197.432,166.317,187.248,167.301z"/>
						</g>
					</g>
					<g>
						<path style="fill:#F0F0F0;" d="M227.174,179.079l0.514,5.437c0.543,5.748-2.67,11.858-9.768,16.969
							c-14.189,10.227-38.544,12.58-54.391,5.256c-7.926-3.659-12.224-9.044-12.767-14.792l-0.514-5.437
							c0.543,5.748,4.842,11.137,12.767,14.796c15.846,7.319,40.201,4.966,54.391-5.256
							C224.505,190.942,227.718,184.831,227.174,179.079z"/>
						<path style="fill:#FAFAFA;" d="M203.011,208.486c1.975-0.571,3.899-1.236,5.748-1.995l-0.514-5.438
							c-1.849,0.758-3.773,1.42-5.748,1.991L203.011,208.486z"/>
						<path style="fill:#E0E0E0;" d="M226.1,185.846c-1.462,3.569-4.345,7.076-8.693,10.207c-0.338,0.243-0.687,0.478-1.036,0.713
							l0.514,5.44c0.349-0.235,0.697-0.477,1.035-0.72c4.348-3.131,7.231-6.638,8.693-10.206L226.1,185.846z"/>
						<path style="fill:#E0E0E0;" d="M191.523,205.182c-10.062,1.078-20.398-0.128-28.507-3.873
							c-7.926-3.659-12.225-9.049-12.767-14.796l0.514,5.437c0.543,5.748,4.841,11.132,12.767,14.792
							c8.109,3.748,18.445,4.961,28.508,3.883L191.523,205.182z"/>
						<path style="fill:#F5F5F5;" d="M164.263,207.071c5.109,2.231,11.041,3.487,17.21,3.833l-0.514-5.442
							c-6.168-0.345-12.101-1.604-17.21-3.834L164.263,207.071z"/>
					</g>
					<g>
						<path style="fill:#37474F;" d="M227.74,176.988c-0.554-5.862-4.936-11.354-13.016-15.086
							c-16.16-7.465-40.992-5.065-55.463,5.359c-7.236,5.212-10.511,11.444-9.957,17.306c0.033,0.352,0.166,1.759,0.199,2.111
							c0.554,5.862,4.936,11.354,13.016,15.086c16.16,7.465,40.992,5.065,55.463-5.359c7.236-5.212,10.511-11.444,9.957-17.306
							C227.906,178.747,227.773,177.34,227.74,176.988z"/>
						<path style="fill:#455A64;" d="M162.319,199.654c16.16,7.465,40.992,5.065,55.463-5.359
							c7.236-5.212,10.511-11.444,9.957-17.306c-0.554-5.862-4.936-11.354-13.016-15.086c-16.16-7.465-40.992-5.065-55.463,5.359
							c-7.236,5.212-10.511,11.444-9.957,17.306C149.857,190.43,154.239,195.921,162.319,199.654z"/>
					</g>
					<g>
						<path style="fill:#37474F;" d="M177.241,206.494c-3.258-0.279-6.391-0.948-9.203-2.025c-0.309-0.118-0.573-0.098-0.754,0.033
							c-0.144,0.104-0.679,0.493-0.822,0.597c-0.186,0.134-0.284,0.385-0.252,0.725l0.004,0.04c0.064,0.674,0.613,1.441,1.239,1.681
							c2.812,1.077,5.946,1.747,9.204,2.026c0.261,0.022,0.493-0.044,0.676-0.173c0.148-0.105,0.693-0.503,0.833-0.603
							c0.281-0.2,0.444-0.548,0.406-0.953l-0.004-0.042C178.502,207.126,177.908,206.551,177.241,206.494z"/>
						<path style="fill:#455A64;" d="M167.452,207.544c2.812,1.077,5.946,1.747,9.204,2.026c0.667,0.057,1.158-0.461,1.094-1.135
							l-0.004-0.042c-0.064-0.674-0.658-1.249-1.325-1.306c-3.258-0.279-6.391-0.948-9.203-2.025
							c-0.626-0.24-1.072,0.087-1.009,0.761l0.004,0.04C166.277,206.538,166.826,207.304,167.452,207.544z"/>
					</g>
				</g>
				<g>
					<g>
						<path style="fill:#263238;" d="M224.058,171.273c0,0.005,0.001,0.01,0.001,0.01c0.51,5.396-2.51,11.128-9.165,15.925
							c-13.323,9.596-36.186,11.805-51.065,4.935c-7.437-3.44-11.476-8.495-11.985-13.891s2.505-11.133,9.169-15.931
							c13.323-9.601,36.186-11.81,51.065-4.935C219.515,160.822,223.549,165.877,224.058,171.273z"/>
						<path style="fill:#455A64;" d="M224.058,171.273c0,0.005,0.001,0.01,0.001,0.01c0.51,5.396-2.51,11.128-9.165,15.925
							c-13.323,9.596-36.186,11.805-51.065,4.935c-7.437-3.44-11.476-8.495-11.985-13.891s2.505-11.133,9.169-15.931
							c13.323-9.601,36.186-11.81,51.065-4.935C219.515,160.822,223.549,165.877,224.058,171.273z"/>
					</g>
					<ellipse style="fill:#455A64;" cx="186.409" cy="155.433" rx="42.936" ry="43.432"/>
					<path style="fill:#F0F0F0;" d="M225.662,173.132c-0.474,0.979-3.094,5.57-12.283,9.803c-0.37,0.17-0.744,0.334-1.121,0.492
						c-5.584,2.333-13.11,3.493-20.51,3.261c-10.374-0.325-19.989-5.594-26.155-14.04l0,0c0.312-1.131,0.415-2.483,0.27-4.02
						c-0.318-3.365-1.767-6.913-3.797-9.816c1.787-3.944,3.829-16.853,26.002-30.482c10.735-6.598,25.455-5.25,29.515-2.852
						c-9.239-9.903-22.931-15.352-37.447-13.313c-22.365,3.141-38.716,23.58-37.118,46.364c0.628,8.958,3.867,17.065,8.894,23.642
						c0.223,0.292,0.363,0.64,0.398,1.008l0,0c0.51,5.396,4.548,10.451,11.985,13.891c14.878,6.871,37.741,4.661,51.065-4.935
						c6.659-4.802,9.673-10.539,9.164-15.935v0c-0.036-0.368,0.036-0.737,0.201-1.067
						C225.053,174.475,225.366,173.808,225.662,173.132z"/>
					<g>
						<path style="fill:#E0E0E0;" d="M223.239,176.363c-1.275,3.568-4.066,7.09-8.403,10.219
							c-11.627,8.372-30.521,11.125-45.027,7.116c-2.12-0.579-4.142-1.305-6.037-2.181c-2.873-1.329-5.243-2.903-7.093-4.642
							c-2.037-1.454-4.017-4.019-4.927-4.932c0,0,0.588,2.168,0.701,2.541l0.177,0.584c0.028,0.091,0.056,0.182,0.079,0.273
							c0.533,1.93,1.536,3.784,2.996,5.516c2.002,2.369,4.872,4.492,8.59,6.212c14.878,6.871,37.741,4.661,51.065-4.935
							c6.659-4.803,9.673-10.539,9.164-15.935c-0.035-0.366,0.033-0.737,0.201-1.064c0.311-0.626,0.607-1.261,0.887-1.899
							C225.35,173.749,224.674,174.894,223.239,176.363z"/>
					</g>
					<path style="fill:#37474F;" d="M217.581,125.478c4.875,6.159-1.204,18.006-7.854,22.646c3.565,1.608,5.866,7.669,4.518,11.709
						c7.026,2.198,12.789,8.034,11.418,13.298l0,0c2.905-6.634,4.218-14.092,3.487-21.829
						C228.199,141.24,223.946,132.302,217.581,125.478z"/>
					<g>
						<g>
							<path style="fill:#E0E0E0;" d="M160.076,177.219c-0.773,0.075-1.616-0.093-2.504-0.503
								c-3.931-1.816-7.573-7.996-8.119-13.777c-0.318-3.368,0.452-5.986,2.112-7.181c1.155-0.832,2.612-0.881,4.211-0.142
								c3.931,1.815,7.573,7.996,8.119,13.777c0.318,3.368-0.452,5.985-2.112,7.181
								C161.268,176.944,160.695,177.159,160.076,177.219z M153.308,155.509c-0.553,0.053-1.063,0.244-1.517,0.571
								c-1.52,1.095-2.249,3.646-1.949,6.822c0.534,5.655,4.075,11.691,7.892,13.455c1.465,0.676,2.786,0.642,3.821-0.105
								c1.521-1.096,2.249-3.646,1.949-6.822c-0.534-5.655-4.074-11.691-7.891-13.455
								C154.79,155.596,154.014,155.441,153.308,155.509z"/>
						</g>
						<path style="fill:#E0E0E0;" d="M205.339,116.298c-8.132-1.221-22.584-0.126-37.739,16.637l-6.348,1.023
							c0,0-7.955,11.403-8.74,21.525c2.217-0.889,6.785,1.269,9.803,8.42c3.018,7.151,0.386,11.391,0.386,11.391l2.79,3.213
							c5.958,6.862,14.351,11.11,23.361,11.705c6.738,0.445,13.658-0.209,18.788-1.718c2.116-0.622,4.225-1.413,6.221-2.417
							c5.74-2.886,8.94-5.853,10.696-8.049c0.032-0.612,0.026-1.223-0.032-1.829v0c-0.004-0.041-0.002-0.081-0.003-0.122
							c-1.955,2.224-5.514,5.575-11.03,8.305c-1.776,0.879-3.792,1.587-5.888,2.158c-4.73,1.289-10.955,1.892-17.146,1.599
							c-9.923-0.469-19.127-5.38-25.234-13.304l-0.756-0.98c0,0,0.831-3.65-0.186-7.831c-1.018-4.181-3.854-7.644-3.854-7.644
							s3.477-18.021,25.472-30.708c13.049-7.527,23.213-6.589,29.874-4.02C212.678,120.704,209.161,118.222,205.339,116.298z"/>
						<path style="opacity:0.2;" d="M159.307,157.722c4.108-12.27,12.102-22.251,24.884-30.12
							c10.691-6.582,20.627-8.084,30.088-5.301c-2.304-2.001-4.812-3.76-7.487-5.236c-0.038-0.006-12.02-1.989-23.661,4.512
							c-11.659,6.512-15.043,12.439-15.043,12.439l-6.74,0.968c0,0-7.263,11.806-7.919,19.691c0.721-0.09,2.192,0.348,2.192,0.348
							l0.257-0.756c0.695,0.201,1.329,0.523,1.907,0.954l-0.325,0.947C157.459,156.169,158.428,156.817,159.307,157.722z"/>
					</g>
					<g>
						<g>
							<path style="fill:#BA68C8;" d="M147.996,157.803c-1.464,0.654-2.5,2.286-2.762,4.742c-0.524,4.911,2.247,11.256,6.189,14.171
								c1.971,1.458,3.862,1.782,5.326,1.128c0.889-0.397,2.51-1.117,3.399-1.515c1.464-0.654,2.5-2.287,2.762-4.742
								c0.524-4.912-2.247-11.256-6.189-14.171c-1.971-1.458-3.862-1.781-5.326-1.127
								C150.507,156.686,148.885,157.406,147.996,157.803z"/>
							<path style="opacity:0.2;" d="M147.996,157.803c-1.464,0.654-2.5,2.286-2.762,4.742c-0.524,4.911,2.247,11.256,6.189,14.171
								c1.971,1.458,3.862,1.782,5.326,1.128c0.889-0.397,2.51-1.117,3.399-1.515c1.464-0.654,2.5-2.287,2.762-4.742
								c0.524-4.912-2.247-11.256-6.189-14.171c-1.971-1.458-3.862-1.781-5.326-1.127
								C150.507,156.686,148.885,157.406,147.996,157.803z"/>
							<path style="fill:#BA68C8;" d="M151.423,176.717c1.971,1.457,3.862,1.782,5.326,1.128c1.464-0.654,2.5-2.287,2.762-4.742
								c0.524-4.911-2.246-11.256-6.189-14.171c-1.971-1.457-3.862-1.782-5.326-1.128c-1.464,0.654-2.5,2.287-2.762,4.742
								C144.71,167.457,147.48,173.801,151.423,176.717z"/>
							<path style="fill:#BA68C8;" d="M151.423,176.717c1.971,1.457,3.862,1.782,5.326,1.128c1.464-0.654,2.5-2.287,2.762-4.742
								c0.524-4.911-2.246-11.256-6.189-14.171c-1.971-1.457-3.862-1.782-5.326-1.128c-1.464,0.654-2.5,2.287-2.762,4.742
								C144.71,167.457,147.48,173.801,151.423,176.717z"/>
						</g>
						<g>
							<g>
								<path style="fill:#E0E0E0;" d="M156.613,171.149c0.245-3.039-1.566-6.909-4.046-8.643c-1.243-0.87-2.419-1.037-3.312-0.605
									c-0.272,0.131-2.096,1.001-2.368,1.131c-0.897,0.425-1.514,1.451-1.637,2.975c-0.245,3.039,1.566,6.909,4.046,8.643
									c1.242,0.869,2.416,1.037,3.309,0.606c0.273-0.132,2.106-1.005,2.382-1.137C155.878,173.69,156.49,172.667,156.613,171.149z
									"/>
							</g>
							<path style="fill:#FAFAFA;" d="M150.183,163.643c2.479,1.734,4.291,5.604,4.046,8.643c-0.245,3.039-2.454,4.097-4.933,2.363
								c-2.479-1.734-4.291-5.604-4.046-8.643C145.495,162.967,147.704,161.909,150.183,163.643z"/>
							<path style="fill:#263238;" d="M149.89,164.977c1.924,1.346,3.33,4.349,3.14,6.708c-0.19,2.359-1.904,3.18-3.829,1.834
								c-1.924-1.346-3.33-4.349-3.14-6.708C146.251,164.452,147.965,163.631,149.89,164.977z"/>
							<g>
								<path style="fill:#455A64;" d="M151.714,167.321l-2.339,2.006l-2.217-4.739c0.691-0.334,1.602-0.204,2.562,0.469
									C150.488,165.598,151.176,166.4,151.714,167.321z"/>
								<path style="fill:#37474F;" d="M152.861,171.768c-0.095,1.178-0.572,1.974-1.265,2.302l-2.22-4.742l2.339-2.006
									C152.514,168.702,152.975,170.352,152.861,171.768z"/>
								<path style="fill:#455A64;" d="M151.595,174.07c-0.694,0.334-1.602,0.204-2.564-0.469c-0.771-0.539-1.456-1.343-1.991-2.267
									l2.336-2.007L151.595,174.07z"/>
								<path style="fill:#37474F;" d="M149.376,169.328l-2.336,2.007c-0.802-1.381-1.261-3.028-1.147-4.441
									c0.095-1.181,0.572-1.974,1.265-2.305L149.376,169.328z"/>
							</g>
						</g>
					</g>
				</g>
				<path style="fill:#263238;" d="M163.047,156.2c-0.05,0.138-0.096,0.275-0.142,0.403c-0.324,0.903-0.585,1.648-0.839,2.21
					c2.028,2.904,3.478,6.45,3.796,9.814c0.145,1.538,0.039,2.889-0.268,4.022l0.999,1.305l0.955,1.137
					c0.603-1.354,1.366-3.229,0.972-7.403C168.126,163.514,165.981,158.433,163.047,156.2z"/>
				<path style="opacity:0.3;fill:#FAFAFA;" d="M229.149,151.305c0.294,3.116,0.259,6.194-0.083,9.184
					c-0.341,2.994-0.981,5.91-1.901,8.704c6.846-25.724-9.458-42.476-9.458-42.476c-7.618-3.758-23.079-1.367-32.013,3.123
					c0.766-0.503,1.556-1.008,2.376-1.511c10.733-6.596,25.45-5.248,29.51-2.852C223.949,132.298,228.199,141.241,229.149,151.305z"
					/>
				<path style="opacity:0.2;fill:#FAFAFA;" d="M223.232,140.579c-1.347-4.27-3.547-7.883-7.525-10.018
					c-3.573-1.917-7.787-2.554-11.78-2.019c-1.16,0.155-2.368,0.43-3.236,1.224c-1.285,1.175-1.465,3.225-0.876,4.873
					c0.589,1.648,1.799,2.98,3.008,4.234c4.905,5.089,10.436,9.892,13.277,16.393c1.311,2.999,1.986,6.235,2.972,9.358
					c0.529,1.674,1.946,3.309,3.884,2.496c2.179-0.914,2.287-3.717,2.484-5.729c0.24-2.459,0.343-4.934,0.245-7.404
					C225.503,149.427,224.602,144.922,223.232,140.579z M223.463,170.836c-0.032-0.606-0.296-1.201-0.792-1.532
					c-0.43-0.287-0.98-0.346-1.489-0.26c-1.553,0.262-2.627,1.562-2.495,3.171c0.03,0.363,0.209,0.73,0.457,0.99
					c0.611,0.644,1.601,0.888,2.436,0.602c0.931-0.318,1.685-1.504,1.851-2.443C223.461,171.191,223.472,171.013,223.463,170.836z"
					/>
				<path style="opacity:0.2;fill:#FAFAFA;" d="M180.297,142.554c-3.318-0.946-7.845,5.154-9.273,8.954
					c-1.061,2.824-1.127,6.166-0.703,9.06c0.148,1.009,0.485,2.168,1.025,3.2c0.964,1.845,3.091,3.472,5.157,2.096
					c0.917-0.611,1.497-1.613,1.999-2.602C180.207,159.9,186.664,144.37,180.297,142.554z M177.35,169.034
					c-1.755-0.437-3.515,0.978-3.529,2.618c-0.008,0.893,0.718,1.761,1.354,1.965c0.993,0.32,2.392-0.095,3.009-0.92
					C179.13,171.433,179.124,169.475,177.35,169.034z"/>
			</g>
		</g>
	</g>
</g>
</svg>
